<svg id="Layer_1" data-name="Layer 1" xmlns="http://www.w3.org/2000/svg" viewBox="0 0 40 40" height="100px" width="100px" transform="rotate(0) scale(1, 1)">
  <defs>
    <style>.cls-1 { fill: #624430; }.cls-2 { fill: #fafafa; }</style>
  </defs>
  <circle class="cls-2" cx="20" cy="20" r="19.96"/>
  <g>
    <path class="cls-1" d="M21.41,21.85h-2.81v2.81h2.81v-2.81ZM20.75,24h-1.49v-1.49h1.49v1.49Z"/>
    <path class="cls-1" d="M20,20.03c.94,0,1.7-.76,1.7-1.7s-.76-1.7-1.7-1.7-1.7.76-1.7,1.7.76,1.7,1.7,1.7ZM20,17.3c.57,0,1.04.47,1.04,1.04s-.47,1.04-1.04,1.04-1.04-.47-1.04-1.04.47-1.04,1.04-1.04Z"/>
    <path class="cls-1" d="M6.91,20.32c-.6,0-1.1.49-1.1,1.1v1.78h2.19v-1.78c0-.6-.49-1.1-1.1-1.1ZM7.35,22.54h-.87v-1.12c0-.24.2-.44.44-.44s.44.2.44.44v1.12Z"/>
    <path class="cls-1" d="M9.77,20.32c-.6,0-1.1.49-1.1,1.1v1.78h2.19v-1.78c0-.6-.49-1.1-1.1-1.1ZM10.21,22.54h-.87v-1.12c0-.24.2-.44.44-.44s.44.2.44.44v1.12Z"/>
    <path class="cls-1" d="M6.91,23.68c-.6,0-1.1.49-1.1,1.1v1.78h2.19v-1.78c0-.6-.49-1.1-1.1-1.1ZM7.35,25.9h-.87v-1.12c0-.24.2-.44.44-.44s.44.2.44.44v1.12Z"/>
    <path class="cls-1" d="M9.77,23.68c-.6,0-1.1.49-1.1,1.1v1.78h2.19v-1.78c0-.6-.49-1.1-1.1-1.1ZM10.21,25.9h-.87v-1.12c0-.24.2-.44.44-.44s.44.2.44.44v1.12Z"/>
    <path class="cls-1" d="M6.91,27.04c-.6,0-1.1.49-1.1,1.1v1.78h2.19v-1.78c0-.6-.49-1.1-1.1-1.1ZM7.35,29.26h-.87v-1.12c0-.24.2-.44.44-.44s.44.2.44.44v1.12Z"/>
    <path class="cls-1" d="M9.77,27.04c-.6,0-1.1.49-1.1,1.1v1.78h2.19v-1.78c0-.6-.49-1.1-1.1-1.1ZM10.21,29.26h-.87v-1.12c0-.24.2-.44.44-.44s.44.2.44.44v1.12Z"/>
    <path class="cls-1" d="M34.19,21.42c0-.6-.49-1.1-1.1-1.1s-1.1.49-1.1,1.1v1.78h2.19v-1.78ZM33.53,22.54h-.87v-1.12c0-.24.2-.44.44-.44s.44.2.44.44v1.12Z"/>
    <path class="cls-1" d="M31.32,21.42c0-.6-.49-1.1-1.1-1.1s-1.1.49-1.1,1.1v1.78h2.19v-1.78ZM30.66,22.54h-.87v-1.12c0-.24.2-.44.44-.44s.44.2.44.44v1.12Z"/>
    <path class="cls-1" d="M34.19,24.78c0-.6-.49-1.1-1.1-1.1s-1.1.49-1.1,1.1v1.78h2.19v-1.78ZM33.53,25.9h-.87v-1.12c0-.24.2-.44.44-.44s.44.2.44.44v1.12Z"/>
    <path class="cls-1" d="M31.32,24.78c0-.6-.49-1.1-1.1-1.1s-1.1.49-1.1,1.1v1.78h2.19v-1.78ZM30.66,25.9h-.87v-1.12c0-.24.2-.44.44-.44s.44.2.44.44v1.12Z"/>
    <path class="cls-1" d="M34.19,28.14c0-.6-.49-1.1-1.1-1.1s-1.1.49-1.1,1.1v1.78h2.19v-1.78ZM33.53,29.26h-.87v-1.12c0-.24.2-.44.44-.44s.44.2.44.44v1.12Z"/>
    <path class="cls-1" d="M31.32,29.92v-1.78c0-.6-.49-1.1-1.1-1.1s-1.1.49-1.1,1.1v1.78h2.19ZM29.79,28.14c0-.24.2-.44.44-.44s.44.2.44.44v1.12h-.87v-1.12Z"/>
    <path class="cls-1" d="M28.54,17.31v-1.79h.89l-.9-1.63c-.05-1.05-.83-1.9-1.85-2.06v-1.54h-.66v1.54c-1.02.16-1.8,1.01-1.85,2.06l-.9,1.63h.89v3.15h-1.36v-2.87c.41-.82.66-1.73.66-2.47,0-1.79-1.37-3.25-3.12-3.42v-2.01h-.66v2.01c-1.74.17-3.12,1.63-3.12,3.42,0,.74.25,1.64.66,2.46v2.87h-1.37v-3.15h.89l-.9-1.63c-.05-1.05-.83-1.9-1.85-2.06v-1.54h-.66v1.54c-1.02.16-1.8,1.01-1.85,2.06l-.9,1.63h.89v1.79h-6.9v14.79h30.89v-14.79h-6.9ZM20.75,27.33h-1.49v-1.49h1.49v1.49ZM18.6,25.17v2.15h-.82v-5.98h4.45v5.98h-.82v-2.15h-2.81ZM12.12,23.81h2.45v3.73l-2.45,3.05v-6.78ZM17.54,18.99h.33v-2.61h4.26v2.61h.33v.33h2.65l.89,1.36h-11.99l.89-1.36h2.65v-.33ZM19.28,15.72l.51-2.28h.43l.51,2.28h-1.45ZM15.22,21.34h.62v5.98h-.62v-5.98ZM16.5,21.34h.62v5.98h-.62v-5.98ZM22.89,21.34h.62v5.98h-.62v-5.98ZM24.16,21.34h.62v5.98h-.62v-5.98ZM25.44,23.81h2.44v6.78l-2.44-3.04v-3.73ZM24.68,14.32h3.34l.3.54h-3.93l.3-.54ZM26.35,12.45c.73,0,1.35.52,1.5,1.21h-2.99c.15-.69.76-1.21,1.5-1.21ZM24.82,15.51h3.07v7.63h-2.44v-1.8h1.78l-1.75-2.68h-.65v-3.15ZM20,10.54c1.54,0,2.79,1.25,2.79,2.79,0,.71-.27,1.61-.7,2.39h-.68l-.66-2.94h-1.49l-.66,2.94h-.68c-.43-.79-.7-1.69-.7-2.39,0-1.54,1.25-2.79,2.79-2.79ZM11.98,14.32h3.34l.3.54h-3.93l.3-.54ZM13.65,12.45c.73,0,1.35.52,1.5,1.21h-2.99c.15-.69.76-1.21,1.5-1.21ZM15.18,15.51v3.15h-.65l-1.75,2.68h1.78v1.8h-2.45v-7.63h3.07ZM5.21,17.97h6.24v.7h-6.24v-.7ZM5.21,31.44v-12.12h6.24v12.09l-.02.03h-6.22ZM12.28,31.44l2.77-3.45h9.9l2.77,3.45h-15.44ZM34.79,31.44h-6.22l-.03-.03v-12.08h6.24v12.12ZM28.54,18.66v-.7h6.24v.7h-6.24Z"/>
  </g>
</svg>