<svg id="Layer_1" data-name="Layer 1" xmlns="http://www.w3.org/2000/svg" viewBox="0 0 40 40" height="100px" width="100px" transform="rotate(0) scale(1, 1)">
  <defs>
    <style>.cls-1 { fill: #624430; }.cls-2 { fill: #fafafa; }</style>
  </defs>
  <circle class="cls-2" cx="20" cy="20" r="19.96"/>
  <g>
    <path class="cls-1" d="M29.35,13.39c-.06-.09-.16-.14-.27-.14h-.37v-1.14s-.02-.04-.03-.07c0-.03.03-.04.03-.07v-1.33c0-.18-.15-.33-.33-.33h-2.59v-1.35c0-.18-.15-.33-.33-.33h-1.41v-1.93c0-.11-.05-.21-.14-.27-.09-.06-.2-.07-.3-.04l-1.66.61c-.42-.66-1.16-1.07-1.95-1.07s-1.53.41-1.96,1.07l-1.66-.61c-.1-.04-.21-.02-.3.04-.09.06-.14.16-.14.27v1.93h-1.41c-.18,0-.33.15-.33.33v1.35h-2.59c-.18,0-.33.15-.33.33v1.33s.02.04.03.07c0,.03-.03.04-.03.07v1.14h-.37c-.11,0-.2.05-.27.14-.06.09-.08.19-.05.3l.68,2.07v16.02c0,.18.15.33.33.33h5.87c.18,0,.33-.15.33-.33v-8.51c0-1.21.98-2.19,2.19-2.19s2.19.98,2.19,2.19v1.42s0,0,0,0,0,0,0,0v5.09s0,0,0,0,0,0,0,0v1.99c0,.18.15.33.33.33h5.87c.18,0,.33-.15.33-.33V15.75l.68-2.07c.03-.1.02-.21-.05-.3ZM16.6,7.18l1.48.54c.16.06.33-.01.41-.17.28-.58.87-.96,1.51-.96s1.23.37,1.51.96c.07.15.25.23.41.17l1.49-.54v1.45h-6.81v-1.45ZM14.86,9.29h10.27v.88h-10.27v-.88ZM28.06,12.43v.68H11.94v-.68h16.11ZM11.94,10.96h16.11v.67H11.94v-.67ZM22.84,30.11h1.45v1.34h-1.45v-1.34ZM22.84,29.45v-4.44h1.45v4.44h-1.45ZM24.95,25.01h3.11v4.44h-3.11v-4.44ZM20.72,17.56h-1.43c-.18,0-.33.15-.33.33v.56c-2.24.49-3.9,2.5-3.9,4.81v1.09h-3.11v-8.32h16.11v8.32h-3.11v-1.09c0-2.32-1.66-4.32-3.91-4.81v-.56c0-.18-.15-.33-.33-.33ZM20.39,18.22v.85h-.78v-.85h.78ZM17.16,29.45h-1.45v-4.44h1.45v4.44ZM17.16,30.11v1.34h-1.45v-1.34h1.45ZM15.05,29.45h-3.11v-4.44h3.11v4.44ZM28.15,15.37H11.85l-.48-1.47h17.27l-.48,1.47ZM11.94,30.11h3.11v1.34h-3.11v-1.34ZM20,20.42c-1.57,0-2.84,1.28-2.84,2.84v1.09h-1.45v-1.09c0-1.96,1.37-3.66,3.25-4.14v.27c0,.18.15.33.33.33h1.43c.18,0,.33-.15.33-.33v-.27c1.87.47,3.25,2.18,3.25,4.14v1.09h-1.45v-1.09c0-1.57-1.28-2.84-2.84-2.84ZM24.95,31.44v-1.34h3.11v1.34h-3.11Z"/>
    <path class="cls-1" d="M14.55,17.48c-.64,0-1.16.52-1.16,1.16s.52,1.17,1.16,1.17,1.17-.52,1.17-1.17-.52-1.16-1.17-1.16ZM14.55,19.15c-.28,0-.51-.23-.51-.51s.23-.51.51-.51.51.23.51.51-.23.51-.51.51Z"/>
    <path class="cls-1" d="M25.45,19.81c.64,0,1.16-.52,1.16-1.17s-.52-1.16-1.16-1.16-1.16.52-1.16,1.16.52,1.17,1.16,1.17ZM25.45,18.13c.28,0,.51.23.51.51s-.23.51-.51.51-.51-.23-.51-.51.23-.51.51-.51Z"/>
  </g>
</svg>