<svg id="Layer_1" data-name="Layer 1" xmlns="http://www.w3.org/2000/svg" viewBox="0 0 40 40" height="100px" width="100px" transform="rotate(0) scale(1, 1)">
  <defs>
    <style>.cls-1 { fill: #624430; }.cls-2 { fill: #fafafa; }</style>
  </defs>
  <circle class="cls-2" cx="20" cy="20" r="19.96"/>
  <g>
    <path class="cls-1" d="M17.43,14.98c.06-.03.1-.03.14-.03.19,0,.37,0,.56,0,.05,0,.1,0,.14-.02.03-.05.02-.09.02-.14,0-.41,0-.82,0-1.24,0-.34,0-.68,0-1.01,0-.05,0-.09,0-.14.05-.04.1-.03.14-.03.31,0,.62,0,.94,0,.04,0,.09,0,.13,0,.05,0,.07-.02.07-.07,0-.05,0-.1,0-.14,0-1.29,0-2.58,0-3.88,0-.06,0-.12.02-.19.03,0,.06-.01.1-.01.38-.01.6,0,.71.02,0,.02,0,.05,0,.07,0,.04,0,.09,0,.13,0,1.29,0,2.58,0,3.88,0,.06,0,.11,0,.16.04.05.08.04.12.04.14,0,.29,0,.43,0,.2,0,.39,0,.59,0,.04,0,.09,0,.13,0,0,.03.02.05.02.07,0,.04,0,.08,0,.12,0,.73,0,1.47,0,2.2,0,.05,0,.1,0,.15.05.04.1.03.15.03.18,0,.36,0,.55,0,.05,0,.09,0,.14,0,0,.03.02.06.02.08,0,.04,0,.09,0,.13,0,3.58,0,7.16,0,10.74,0,.06,0,.12,0,.18.03,0,.05.02.08.02.03,0,.07,0,.1,0,1.31,0,2.63,0,3.94,0,.06,0,.11,0,.17-.01.03-.05.02-.1.02-.14,0-.47,0-.94,0-1.4,0-.05,0-.1.02-.15.02,0,.05,0,.07,0,.42-.01,2.33,0,2.44.01.03.04.02.09.02.14,0,.46,0,.93,0,1.39,0,.05,0,.1.01.15.04.03.09.02.14.02.24,0,.48,0,.72,0s.48,0,.72,0c.05,0,.1.01.14-.02.02-.05.01-.1.01-.15,0-.46,0-.93,0-1.39,0-.05-.01-.1.02-.14.11-.02.69-.02.81,0,0,.02,0,.05.01.07,0,.04,0,.09,0,.13,0,2.15,0,4.3,0,6.45,0,.06-.01.12.01.18.05.03.09.02.14.02.41,0,.82,0,1.24,0,.08,0,.16,0,.23,0,.03,0,.05,0,.08,0,.02.14,0,.27,0,.4,0,.13,0,.26,0,.39-.03,0-.05.02-.08.02-.04,0-.09,0-.13,0-9.01,0-18.02,0-27.04,0-.06,0-.13,0-.2-.02-.02-.09,0-.18,0-.27,0-.09,0-.17,0-.26,0-.09,0-.18,0-.27.05-.02.1-.01.15-.01.46,0,.93,0,1.39,0,.05,0,.1,0,.16-.02,0-.03.01-.05.01-.07,0-.05,0-.1,0-.14,0-2.15,0-4.3,0-6.45,0-.06,0-.11,0-.16.01,0,.02-.02.03-.02.23,0,.45,0,.68,0,.03,0,.06,0,.1,0,0,.03.02.06.02.09,0,.1,0,.2,0,.3,0,.39,0,.77,0,1.16,0,.05-.01.1.03.15.01,0,.03.01.05.01.53,0,1.07,0,1.6,0,.02,0,.03,0,.06-.01,0-.02.01-.05.02-.07,0-.07,0-.15,0-.22,0-.42,0-.83,0-1.25,0-.05,0-.09,0-.14.05-.03.1-.02.15-.02.39,0,.78,0,1.17,0,.35,0,.7,0,1.05,0h.15s.02.06.02.09c0,.04,0,.08,0,.12,0,.44,0,.88,0,1.33,0,.06,0,.11.02.17.02,0,.05.01.07.01.03,0,.07,0,.1,0,1.31,0,2.62,0,3.93,0,.06,0,.11,0,.17,0,0-.03.02-.05.02-.08,0-.05,0-.1,0-.16,0-3.57,0-7.14,0-10.72,0-.06,0-.12,0-.18ZM18.29,19.23c-.02.06-.01.12-.01.18,0,3.31,0,6.62,0,9.93,0,.04,0,.08,0,.12,0,.02.01.05.02.08.06,0,.11,0,.16,0,1.03,0,2.06,0,3.09,0,.03,0,.06,0,.09,0,.02,0,.05,0,.07-.01,0-.02.02-.03.02-.04,0-3.4,0-6.8,0-10.19,0-.02,0-.04,0-.06-.05-.04-.11-.02-.17-.02-1.03,0-2.06,0-3.09,0-.03,0-.07,0-.1,0-.02,0-.04,0-.06.01ZM18.28,18.37c.07.02.13.02.19.02,1.02,0,2.04,0,3.05,0,.04,0,.09,0,.13,0,.02,0,.04-.01.07-.02,0-.05,0-.1,0-.16,0-.75,0-1.5,0-2.25,0-.03,0-.06,0-.09,0-.02,0-.05-.01-.07-.06-.02-.12-.01-.17-.01-1.03,0-2.05,0-3.08,0-.03,0-.07,0-.1,0-.02,0-.05.01-.07.02,0,.02,0,.04,0,.06,0,.82,0,1.64,0,2.46,0,.02,0,.03.01.06ZM10.55,31.25c.02-.06.01-.11.01-.16,0-1.32,0-2.64,0-3.97,0-.03,0-.06,0-.09,0-.02,0-.05-.01-.07-.05-.03-.1-.02-.15-.02-.47,0-.94,0-1.42,0-.03,0-.07,0-.1,0-.04,0-.06.02-.06.06,0,.05,0,.1,0,.14,0,1.3,0,2.61,0,3.91,0,.04,0,.08,0,.12,0,.02.01.05.02.08.04,0,.07,0,.1,0,.73.01,1.48,0,1.61-.01ZM29.44,26.96c0,.07,0,.12,0,.17,0,1.32,0,2.64,0,3.96,0,.03,0,.06,0,.09,0,.02,0,.05.01.08.05,0,.09,0,.13,0,.19,0,.39,0,.58,0,.29,0,.57,0,.86,0,.05,0,.1.01.14-.03,0-.05,0-.1,0-.16,0-1.31,0-2.62,0-3.94,0-.03,0-.07,0-.1,0-.02,0-.05-.02-.08-.04,0-.08,0-.12-.01-.49,0-.98,0-1.47,0-.04,0-.08,0-.13.01ZM11.41,27.82c.07.03.13.02.19.02,1.88,0,3.75,0,5.63,0,.04,0,.08,0,.12,0,.02,0,.05-.01.07-.02.02-.11.02-.74,0-.85-.06-.04-.13-.02-.19-.02-1.88,0-3.75,0-5.63,0-.04,0-.08,0-.12,0-.02,0-.05.01-.07.02-.02.1-.03.47-.02.76,0,.03.01.07.02.1ZM11.41,31.25c.06.02.12.01.17.01,1.89,0,3.77,0,5.66,0,.03,0,.07,0,.1,0,.02,0,.05,0,.07-.01.02-.11.02-.74,0-.85-.06-.04-.13-.02-.19-.02-1.88,0-3.75,0-5.63,0-.04,0-.08,0-.12,0-.02,0-.05.01-.07.02-.02.1-.03.56-.02.77,0,.03.01.06.02.08ZM22.58,27.82c.06.02.12.01.18.01,1.88,0,3.76,0,5.64,0,.04,0,.08,0,.12,0,.02,0,.04,0,.07-.01.02-.1,0-.19.01-.29,0-.1,0-.19,0-.29,0-.09.01-.19-.01-.28-.06-.03-.12-.02-.18-.02-1.88,0-3.76,0-5.64,0-.04,0-.08,0-.12,0-.02,0-.04,0-.06.02,0,.02-.01.04-.01.05,0,.26,0,.51,0,.77,0,.01,0,.02.02.04ZM22.58,31.25c.06.02.11.01.16.01,1.89,0,3.79,0,5.68,0,.03,0,.06,0,.09,0,.02,0,.05,0,.08-.01.02-.1,0-.19,0-.29,0-.1,0-.19,0-.29,0-.09.02-.19-.01-.28-.07-.03-.13-.02-.2-.02-1.87,0-3.73,0-5.6,0-.04,0-.09,0-.13,0-.03,0-.05.01-.07.02-.02.1-.02.72,0,.86ZM18.29,31.26c.06,0,.12,0,.17,0,1.02,0,2.05,0,3.07,0,.03,0,.07,0,.1,0,.02,0,.05,0,.08-.01.02-.1,0-.19,0-.29,0-.1,0-.19,0-.29,0-.09.02-.19-.01-.28-.06-.03-.12-.02-.17-.02-1.03,0-2.05,0-3.08,0-.03,0-.06,0-.09,0-.03,0-.06.01-.09.02,0,.03,0,.05,0,.07,0,.25,0,.49,0,.74,0,.01,0,.02.02.05ZM20.85,13.22s-.07,0-.1,0c-.5,0-1.01,0-1.51,0-.03,0-.07,0-.11.01,0,.04-.01.07-.01.11,0,.51,0,1.01,0,1.52,0,.03,0,.06.01.08.05.03.11.02.16.02.3,0,.61,0,.91,0,.17,0,.34,0,.51,0,.05,0,.1,0,.14-.03,0-.01,0-.03,0-.05,0-.54,0-1.07,0-1.61,0-.01,0-.02-.01-.05ZM11.42,26.1s.05.01.07.01c.24,0,.48,0,.71,0,.02,0,.05-.01.07-.02.02-.11.02-.74,0-.85-.03,0-.05-.02-.08-.02-.23,0-.47,0-.7,0-.02,0-.05.01-.08.02-.02.26,0,.51,0,.77,0,.03.01.06.02.09ZM11.42,28.67s-.02.05-.02.06c0,.25,0,.49,0,.74,0,.02.01.05.02.08.1,0,.19,0,.29,0,.09,0,.18,0,.27,0,.09,0,.19.01.29-.01.02-.1,0-.19.01-.29,0-.09,0-.19,0-.29,0-.09.01-.19-.01-.28-.03,0-.06-.01-.09-.01-.25,0-.5,0-.76,0ZM13.13,28.68s-.01.04-.01.06c0,.24,0,.49,0,.73,0,.02.01.05.02.07.1.02.55.02.78.01.02,0,.04,0,.07-.01.02-.1,0-.19.01-.29,0-.1,0-.19,0-.29,0-.09.01-.19-.01-.28-.02,0-.04-.01-.05-.01-.24,0-.48,0-.72,0-.03,0-.05,0-.08.01ZM14.85,28.68s-.01.04-.01.06c0,.24,0,.49,0,.73,0,.02.01.05.02.08.1,0,.19,0,.29,0,.09,0,.18,0,.27,0,.09,0,.19.01.28-.01.03-.07.01-.14.02-.21,0-.07,0-.15,0-.22,0-.07,0-.14,0-.21,0-.07.01-.15-.02-.22-.02,0-.04-.01-.05-.01-.24,0-.49,0-.73,0-.02,0-.04,0-.07.01ZM16.56,29.54s.04.01.06.01c.25,0,.49,0,.74,0,.02,0,.04-.01.06-.01.02-.11.02-.73,0-.85-.09-.04-.19-.02-.28-.02-.1,0-.2,0-.3,0-.09,0-.19-.02-.29.02-.02.25,0,.5,0,.75,0,.03,0,.07.01.1ZM27.73,25.25s-.01.03-.01.04c0,.25,0,.5,0,.75,0,.02.01.04.02.06.02,0,.04,0,.06,0,.24,0,.48,0,.73,0,.02,0,.04,0,.06-.01.03-.1.01-.19.01-.29,0-.1,0-.19,0-.29,0-.09.02-.19-.02-.29-.23-.02-.46,0-.69,0-.05,0-.1,0-.16.02ZM22.58,28.67s-.01.04-.01.05c0,.25,0,.5,0,.75,0,.02.01.04.02.06.1.02.19,0,.29,0,.09,0,.18,0,.27,0,.09,0,.19.01.29-.01.02-.1,0-.19.01-.29,0-.1,0-.19,0-.29,0-.09.02-.19-.01-.28-.05-.03-.09-.02-.13-.02-.24,0-.47-.01-.72,0ZM24.29,28.68s-.01.04-.01.05c0,.25,0,.49,0,.74,0,.02,0,.04.01.06.03,0,.05,0,.07,0,.24,0,.48,0,.71,0,.02,0,.05-.01.07-.02.01-.1.02-.6.01-.78,0-.02,0-.04-.01-.06-.02,0-.04-.02-.06-.02-.24,0-.48,0-.73,0-.02,0-.04.01-.06.02ZM26.01,29.54s.05.01.08.01c.23,0,.47,0,.7,0,.02,0,.05,0,.07-.01.02-.11.02-.73,0-.85-.03,0-.05-.02-.08-.02-.23,0-.46,0-.69,0-.03,0-.06.01-.08.02-.01.09-.02.63-.01.79,0,.02,0,.04.01.07ZM27.72,28.68c0,.27,0,.53,0,.79,0,.02,0,.04.01.07.03,0,.05.01.08.01.23,0,.47,0,.7,0,.02,0,.05-.01.07-.01.02-.11.02-.74,0-.85-.01,0-.03-.02-.05-.02-.24,0-.48,0-.73,0-.02,0-.05,0-.09.02Z"/>
    <path class="cls-1" d="M31.14,23.55s0,.05,0,.07c0,.23,0,.46,0,.69,0,.01,0,.02-.01.04-.05.02-.1.02-.15.02-.44,0-.87,0-1.31,0-.06,0-.13,0-.2,0,0-.03-.02-.05-.02-.08,0-.22,0-.44,0-.66,0-.02,0-.05.01-.07.02,0,.03-.01.04-.01.52,0,1.05,0,1.57,0,.02,0,.03,0,.06,0Z"/>
    <path class="cls-1" d="M8.87,24.36c-.02-.12-.02-.69,0-.81.03,0,.06-.01.08-.01.49,0,.99,0,1.48,0,.03,0,.06,0,.09,0,.03.14.01.27.02.4,0,.13,0,.26,0,.4-.03,0-.06.02-.09.02-.08,0-.16,0-.23,0-.39,0-.79,0-1.18,0-.05,0-.1,0-.16,0Z"/>
    <path class="cls-1" d="M20.3,20.12c.12-.02.71-.02.82,0,0,.03.01.06.01.1,0,.49,0,.97,0,1.46,0,.03,0,.07-.01.1-.02,0-.04.01-.06.01-.23,0-.47,0-.7,0-.02,0-.03,0-.06-.01,0-.03-.01-.05-.01-.08,0-.5,0-1.01,0-1.51,0-.02,0-.04,0-.07Z"/>
    <path class="cls-1" d="M18.87,20.12s.04-.01.06-.01c.24,0,.48,0,.72,0,.01,0,.02,0,.05.01,0,.04,0,.07,0,.11,0,.48,0,.95,0,1.43,0,.04,0,.08-.02.12-.01,0-.03,0-.05,0-.23,0-.47,0-.7,0-.02,0-.03,0-.06-.01,0-.03,0-.05,0-.08,0-.5,0-1.01,0-1.51,0-.02,0-.04,0-.08Z"/>
    <path class="cls-1" d="M18.87,26.99s.03-.01.05-.01c.23,0,.47,0,.7,0,.02,0,.04,0,.06,0,.03.04.02.08.02.12,0,.48,0,.96,0,1.44,0,.03,0,.07-.01.11-.03,0-.06.01-.09.02-.37.01-.63,0-.72-.02,0,0,0,0,0,0,0,0,0,0,0-.01,0-.52,0-1.04,0-1.56,0-.02,0-.04,0-.07Z"/>
    <path class="cls-1" d="M21.12,28.65c-.13.02-.7.02-.81,0,0-.02-.01-.05-.01-.07,0-.51,0-1.02,0-1.53,0-.02,0-.03,0-.06.02,0,.04-.01.06-.01.23,0,.47,0,.7,0,.02,0,.03,0,.06.01,0,.03.01.07.01.1,0,.48,0,.97,0,1.45,0,.03,0,.07-.01.11Z"/>
    <path class="cls-1" d="M19.16,23.5v-.8s.05-.02.07-.02c.07,0,.14,0,.21,0,.42,0,.83,0,1.25,0,.05,0,.09,0,.14,0,0,.03.02.05.02.08.01.21,0,.64-.02.73-.03,0-.05.01-.08.01-.5,0-.99,0-1.49,0-.03,0-.06,0-.1-.01Z"/>
    <path class="cls-1" d="M19.99,17.5c-.2.01-.41-.17-.41-.41,0-.24.2-.42.42-.42.23,0,.42.21.41.43,0,.19-.17.42-.42.4Z"/>
  </g>
</svg>