<svg id="Layer_1" data-name="Layer 1" xmlns="http://www.w3.org/2000/svg" viewBox="0 0 40 40" height="100px" width="100px" transform="rotate(0) scale(1, 1)">
  <defs>
    <style>.cls-1 { fill: #624430; }.cls-2 { fill: #fafafa; }</style>
  </defs>
  <circle class="cls-2" cx="20" cy="20" r="19.96"/>
  <g id="bvId5P.tif">
    <g>
      <path class="cls-1" d="M31.23,32.1H10.08v-11.16c.24-.36.31-.21.71-.27v-2.83c-.36-.02-.57-.25-.71-.54v-1.04c.1-.23.22-.42.48-.53-.27-.31-.38-.66-.48-1.01v-.59c.09-.46.27-.9.59-1.25l.73-.81c.5-.56.48-1.36,1.21-1.33.28.01.53.19.65.48.5,1.24,1.44,1.51,1.74,2.6.18.68.07,1.37-.41,1.92.31.12.49.38.49.7v.67c0,.42-.29.72-.71.75v1.42s12.84,0,12.84,0v-1.42c-.42-.03-.71-.33-.71-.75v-.67c0-.31.17-.57.49-.69-.72-.83-.6-2.07.11-2.87l.71-.79c.51-.57.48-1.34,1.2-1.33.28,0,.54.17.65.45.5,1.2,1.29,1.43,1.67,2.39.3.73.19,1.53-.32,2.14.28.12.48.36.48.66v.76c0,.39-.32.67-.71.7v2.83s.34.01.34.01c.22,0,.38.15.38.39v10.69c0,.18-.15.26-.25.34ZM12.1,15.69h.94c.4,0,.76-.16,1-.43.26-.3.35-.69.29-1.09s-.29-.74-.58-1.04c-.49-.5-.9-1.02-1.18-1.7-.22.51-.48.92-.83,1.31l-.58.64c-.21.29-.36.59-.38.95-.04.76.53,1.36,1.31,1.36ZM28.49,15.69h1.07c.8-.01,1.33-.77,1.18-1.55-.06-.4-.28-.72-.57-1.01-.49-.5-.9-1.03-1.19-1.7-.23.53-.5.94-.86,1.35l-.57.64c-.26.36-.4.76-.33,1.21.1.62.62,1.07,1.27,1.06ZM14.36,17.12v-.71s-3.56,0-3.56,0v.71s3.56,0,3.56,0ZM30.76,17.12v-.71s-3.56,0-3.56,0v.71s3.56,0,3.56,0ZM13.65,20.68v-2.84s-2.14,0-2.14,0v2.86s2.14-.01,2.14-.01ZM30.06,20.68v-2.85s-2.14,0-2.14,0v2.85s2.14,0,2.14,0ZM27.2,20.69v-.71s-12.83,0-12.83,0v.71s12.83,0,12.83,0ZM14.36,22.11v-.71s-3.56,0-3.56,0v.71s3.56,0,3.56,0ZM17.57,22.11v-.71s-2.5,0-2.5,0v.71s2.5,0,2.5,0ZM23.28,22.11v-.71s-4.99,0-4.99,0v.71s4.99,0,4.99,0ZM26.49,22.11v-.71s-2.5,0-2.5,0v.71s2.5,0,2.5,0ZM30.77,22.11v-.71s-3.56,0-3.56,0v.71s3.56,0,3.56,0ZM14.36,26.04v-3.21s-3.57,0-3.57,0v3.21s3.57,0,3.57,0ZM17.57,26.03v-3.21s-2.5,0-2.5,0v3.21s2.5,0,2.5,0ZM23.27,23.9v-1.07s-4.99,0-4.99,0v1.07h4.99ZM26.49,26.03v-3.21s-2.5,0-2.5,0v3.21s2.5,0,2.5,0ZM30.77,26.04v-3.21s-3.57,0-3.57,0v3.21s3.57,0,3.57,0ZM21.32,25.7c.67.64,1.24,1.22,1.24,2.23v3.46s.72,0,.72,0v-6.77s-4.99,0-4.99,0v6.77s.71,0,.71,0v-3.45c0-1.02.59-1.59,1.24-2.21.31-.3.75-.32,1.08,0ZM21.85,31.38v-3.41c0-.4-.13-.74-.36-1.06-.22-.26-.44-.49-.71-.73-.58.51-1.07.97-1.07,1.79v3.41s2.14,0,2.14,0ZM14.36,27.46v-.71s-3.56,0-3.56,0v.71s3.56,0,3.56,0ZM17.57,31.38v-4.63s-2.5,0-2.5,0v4.63s2.5,0,2.5,0ZM26.49,31.39v-4.64s-2.5,0-2.5,0v4.64s2.5,0,2.5,0ZM30.77,27.46v-.71s-3.56,0-3.56,0v.71s3.56,0,3.56,0ZM14.36,31.39v-3.21s-3.57,0-3.57,0v3.21s3.57,0,3.57,0ZM30.77,31.39v-3.21s-3.57,0-3.57,0v3.21s3.57,0,3.57,0Z"/>
      <path class="cls-1" d="M12.22,24.94c0,.24-.16.38-.36.38-.18,0-.35-.15-.35-.37v-.71c0-.21.19-.34.35-.34.21,0,.36.16.36.38v.65Z"/>
      <path class="cls-1" d="M13.65,24.94c0,.23-.14.37-.33.38-.17.01-.38-.12-.38-.33v-.7c0-.22.15-.38.34-.38.21,0,.37.16.37.38v.65Z"/>
      <path class="cls-1" d="M30.06,24.94c0,.24-.17.38-.35.38-.2,0-.36-.15-.36-.36v-.67c0-.21.13-.36.32-.38s.38.12.39.34v.69Z"/>
      <path class="cls-1" d="M28.63,24.97c0,.22-.18.35-.34.35-.2,0-.37-.15-.37-.37v-.67c0-.22.15-.38.37-.38.19,0,.35.16.35.38v.69Z"/>
      <path class="cls-1" d="M16.86,30.28c0,.24-.16.39-.36.39-.19,0-.35-.15-.35-.37v-2.47c0-.22.16-.37.35-.37s.36.15.36.37v2.45Z"/>
      <path class="cls-1" d="M25.42,30.28c0,.24-.16.39-.35.39s-.36-.15-.36-.37v-2.47c0-.22.16-.37.36-.37s.35.15.35.37v2.45Z"/>
      <path class="cls-1" d="M16.86,24.94c0,.24-.16.39-.36.38s-.35-.15-.35-.37v-1.05c0-.21.17-.36.35-.36s.36.15.36.36v1.03Z"/>
      <path class="cls-1" d="M25.42,24.94c0,.24-.16.38-.35.38s-.36-.15-.36-.37v-1.05c0-.21.17-.37.36-.36s.35.15.35.36v1.03Z"/>
    </g>
  </g>
</svg>