<svg id="Layer_1" data-name="Layer 1" xmlns="http://www.w3.org/2000/svg" viewBox="0 0 40 40" height="100px" width="100px" transform="rotate(0) scale(1, 1)">
  <defs>
    <style>.cls-1 { fill: #624430; }.cls-2 { fill: #fafafa; }</style>
  </defs>
  <circle class="cls-2" cx="20" cy="20" r="19.96"/>
  <g>
    <path class="cls-1" d="M14.13,17.93c0-.11,0-.21,0-.3,0-.23,0-.46,0-.68,0-.07,0-.14,0-.21-.03-.17-.11-.24-.28-.26-.07,0-.14-.01-.21-.02-.18-.03-.3-.17-.29-.35,0-.18.11-.31.29-.34.09-.01.17-.01.26-.01.43,0,.85,0,1.28,0,.12,0,.23-.01.35-.03.12-.02.17-.06.2-.19.02-.11.02-.22.03-.33.02-.23.03-.47.06-.7.04-.26.13-.33.39-.33.72,0,1.44,0,2.15,0,1.69,0,3.39,0,5.08,0,.12,0,.25,0,.37,0,.22,0,.34.1.37.32.02.15.02.3.03.45.01.16.02.33.04.49.02.19.1.27.29.28.24.02.49.02.73.02.29,0,.58,0,.87-.02.15,0,.4.14.46.27.06.14-.07.38-.23.41-.06,0-.13.01-.19.02-.22.04-.32.16-.33.38,0,.16,0,.32,0,.47,0,.18,0,.35,0,.53,0,.03,0,.06.02.1.07,0,.13.01.19.01.43,0,.85-.02,1.28-.03.62-.01,1.24.01,1.85.06.83.06,1.65.21,2.45.46.02,0,.05.01.07.02.24.08.31.17.31.42,0,.43,0,.85,0,1.28,0,.37.1.49.47.49.45,0,.9,0,1.35,0,.38,0,.46.09.48.46,0,.05,0,.11,0,.16,0,3.09,0,6.19,0,9.28,0,.17,0,.34,0,.51,0,.17.06.22.23.25.09.01.17.01.26.01,1.05,0-.38,0,.67,0,.12,0,.23.02.34.05.15.04.28.21.27.35,0,.15-.13.29-.3.32-.18.03-.36.05-.54.05-2.29,0-2.11.01-4.4.01-9.54,0-16.6,0-26.14,0-.18,0-.36-.01-.54-.03-.21-.02-.33-.14-.35-.33-.02-.21.07-.34.29-.39.13-.03.28-.04.42-.04.86,0-.77,0,.09,0,.25,0,.5,0,.75-.02.18,0,.23-.06.25-.25,0-.1,0-.2,0-.3,0-3.16,0-6.32,0-9.48,0-.08,0-.16,0-.25.01-.26.14-.38.4-.39.42,0,.84,0,1.26,0,.12,0,.24-.01.37-.03.19-.02.24-.08.25-.27.01-.24.02-.49.02-.74,0-.2,0-.41-.01-.61,0-.05,0-.09,0-.14.02-.25.16-.41.41-.45.7-.13,1.41-.27,2.11-.38.66-.1,1.32-.11,1.99-.09.47.01.93.02,1.4.03.08,0,.16-.01.26-.02ZM27.76,27.39c1.03,0,2.06,0,3.08,0,.1,0,.2-.01.29-.03.09-.01.15-.07.16-.16.01-.09.02-.19.02-.28,0-1.58,0-3.15,0-4.73,0-.18,0-.36,0-.54,0-.3-.15-.44-.45-.48-.2-.02-.4-.05-.61-.08-.57-.08-1.14-.16-1.71-.24-.68-.09-1.36-.06-2.04.02-.45.05-.9.13-1.35.2-.18.03-.37.07-.55.1-.25.05-.35.18-.36.42,0,.03,0,.06,0,.09,0,1.77,0,3.54,0,5.31,0,.06,0,.13,0,.19.01.1.06.16.16.18.08.01.16.02.24.02,1.03,0,2.06,0,3.08,0ZM12.22,27.39h0c1.04,0,2.08,0,3.12,0,.05,0,.09,0,.14,0,.18-.02.27-.12.29-.3,0-.06,0-.12,0-.17,0-1.26,0-2.52,0-3.78,0-.5,0-.99,0-1.49,0-.31-.11-.44-.41-.48-.36-.05-.73-.1-1.09-.15-.54-.07-1.08-.14-1.63-.21-.55-.07-1.11-.02-1.66.05-.62.08-1.23.2-1.84.31-.39.07-.43.13-.43.52,0,1.75,0,3.5,0,5.25,0,.07,0,.14,0,.21.01.11.07.19.18.2.1.01.2.03.29.03,1.01,0,2.02,0,3.03,0ZM19.98,29.96c-4.37,0-8.75,0-13.12,0-.06,0-.13,0-.19,0-.19,0-.27.08-.27.27,0,.18,0,.35,0,.53,0,.09,0,.19,0,.28.01.17.07.23.23.25.09.01.17.02.26.02,8.64,0,17.27,0,25.91,0,.19,0,.39,0,.58-.02.16-.01.23-.08.24-.23,0-.3,0-.6,0-.89,0-.16-.06-.2-.23-.21-.16,0-.31,0-.47,0-4.31,0-8.62,0-12.93,0ZM16.55,24.72h0c0,1.28,0,2.57,0,3.85,0,.12,0,.23.01.35.02.15.07.21.22.23.11.02.23.02.35.02.27-.02.36-.13.36-.39,0-1.34,0-2.69,0-4.03,0-.21.01-.42.03-.63.05-.49.23-.93.54-1.31.44-.54,1.01-.9,1.67-1.11.22-.07.45-.06.67.02.32.11.62.27.9.46.49.34.86.77,1.06,1.33.12.34.18.69.18,1.05,0,.72,0,1.44,0,2.15,0,.63,0,1.26,0,1.89,0,.09,0,.19.01.28.01.1.05.2.14.25.33.18.66,0,.75-.27.02-.08.03-.17.03-.26,0-2.6,0-5.21,0-7.81,0-.08,0-.15-.02-.23-.03-.18-.08-.23-.27-.24-.24-.01-.49-.02-.73-.02-1.54,0-3.07,0-4.61,0-.34,0-.69.02-1.03.02-.19,0-.27.12-.26.28,0,.04,0,.08,0,.12,0,1.33,0,2.66,0,3.99ZM18.26,26.52s0,0,0,0c0,.74,0,1.47,0,2.21,0,.34.09.44.43.44,0,0,.01,0,.02,0,.75,0,1.49,0,2.24,0,.19,0,.39,0,.58-.02.13,0,.17-.05.19-.18.01-.1.02-.2.02-.3,0-1.09,0-2.18,0-3.28,0-.34.02-.68.01-1.02,0-.49-.18-.92-.53-1.27-.29-.3-.65-.49-1.03-.64-.11-.04-.23-.04-.34,0-.41.15-.78.37-1.08.7-.32.35-.51.76-.51,1.25,0,.71,0,1.41,0,2.12ZM19.96,19.51s0,0,0,0c.96,0,1.93,0,2.89,0,.1,0,.2,0,.3,0,.24-.01.33-.1.33-.34,0-.78,0-1.56,0-2.35,0-.26-.1-.36-.36-.36-2.07,0-4.13,0-6.2,0-.28,0-.37.09-.37.37,0,.78,0,1.55,0,2.33,0,.3.04.34.35.34,1.02,0,2.04,0,3.06,0ZM15.74,20.47c.01-.05.02-.07.02-.1,0-.24,0-.48,0-.72,0-.12-.01-.24-.02-.37-.01-.13-.09-.21-.21-.25-.08-.03-.17-.05-.25-.07-.64-.14-1.28-.25-1.93-.28-.42-.02-.84-.05-1.26-.05-.67,0-1.33.05-1.98.16-.37.06-.74.15-1.11.24-.21.05-.28.16-.28.36,0,.3,0,.6,0,.89,0,.05.01.1.02.18,2.34-.53,4.66-.54,7.01-.01ZM31.28,20.47c0-.09.02-.16.02-.22,0-.23.01-.47.01-.7,0-.08,0-.15,0-.23-.02-.18-.07-.25-.24-.3-.04-.01-.08-.02-.12-.03-.57-.09-1.14-.17-1.71-.25-.53-.07-1.06-.14-1.6-.13-.46.01-.92.05-1.38.1-.54.07-1.08.16-1.62.25-.29.05-.37.16-.38.45,0,.3,0,.61,0,.91,0,.03,0,.07.02.13,2.33-.54,4.66-.52,7.01,0ZM12.26,28.12c-1.02,0-2.04,0-3.06,0-.09,0-.17.01-.26.02-.11.01-.17.07-.18.18,0,.13-.03.25-.04.38-.02.33,0,.39.38.44.01,0,.02,0,.03,0,.26,0,.52.02.79.02,1.8,0,3.59,0,5.39,0,.07,0,.14,0,.21-.02.15-.03.23-.11.24-.26,0-.17,0-.34,0-.51-.01-.16-.09-.24-.26-.26-.09-.01-.19,0-.28,0-.99,0-1.97,0-2.96,0ZM27.72,29.16s0,0,0,0c1,0,2.01,0,3.01,0,.12,0,.23-.01.35-.03.13-.02.16-.05.17-.18.02-.16.03-.33.03-.49,0-.21-.05-.26-.25-.32-.03,0-.07-.01-.1-.02-.22,0-.43-.03-.65-.03-1.85,0-3.7,0-5.55,0-.08,0-.15,0-.23.01-.18.03-.23.08-.24.26,0,.15-.01.3,0,.46,0,.21.11.31.31.32.08,0,.16,0,.24,0,.97,0,1.94,0,2.91,0ZM32.04,27.2s0,0,0,0c0,.22,0,.43,0,.65,0,.33,0,.65,0,.98,0,.24.06.31.29.33.26.02.52,0,.79,0,.1,0,.2,0,.3-.02.12-.01.17-.06.19-.17.01-.08.02-.16.02-.24,0-.89,0-1.77,0-2.66,0-.16-.01-.32-.03-.47-.04-.27-.17-.4-.44-.4-.28,0-.56.02-.84.04-.15.01-.22.08-.25.23-.01.06-.02.12-.02.17,0,.52,0,1.04,0,1.56ZM6.39,27.21h0c0,.51,0,1.03,0,1.54,0,.35.06.42.42.42.26,0,.51,0,.77,0,.06,0,.13-.01.19-.03.12-.03.18-.1.19-.22,0-.05,0-.09,0-.14,0-.9,0-1.81,0-2.71,0-.13,0-.27-.01-.4-.03-.3-.16-.42-.47-.43-.23,0-.47,0-.7,0-.33,0-.38.06-.39.39,0,.53,0,1.05,0,1.58ZM20.01,14.91s0,0,0,0c-.24,0-.49,0-.73,0-.76,0-1.53,0-2.29,0-.08,0-.16.01-.24.03-.12.03-.18.11-.19.22,0,.13,0,.26,0,.38.01.12.07.17.2.19.1.01.21.02.31.02,1.97,0,3.93,0,5.9,0,.09,0,.19,0,.28-.02.15-.02.2-.07.21-.21.01-.11.02-.23,0-.35-.01-.13-.08-.22-.22-.24-.08-.01-.16-.02-.24-.02-1,0-2,0-2.99,0ZM32.04,22.92h0c0,.26,0,.53,0,.79,0,.16-.01.33,0,.49,0,.2.08.28.28.29.26.02.51.02.77.02.09,0,.19-.01.28-.02.13-.02.21-.1.24-.23.01-.06.02-.13.02-.19,0-.62,0-1.24,0-1.86,0-.16-.01-.31-.03-.47-.03-.25-.13-.36-.38-.4-.31-.06-.62,0-.92.02-.12.01-.21.1-.23.23,0,.06-.01.13-.01.19,0,.38,0,.76,0,1.14ZM6.39,22.92s0,0,0,0c0,.42,0,.84,0,1.26,0,.22.08.3.29.31.31.01.63.01.94.01.03,0,.06,0,.09-.01.15-.03.22-.11.24-.26,0-.04,0-.08,0-.12,0-.64,0-1.27,0-1.91,0-.16,0-.33-.03-.49-.05-.28-.18-.39-.46-.39-.24,0-.48.02-.72.03-.28.02-.36.1-.36.38,0,.4,0,.79,0,1.19ZM15.76,17.42s0,0,0,0c0-.07,0-.14,0-.21,0-.17,0-.35-.02-.52-.02-.14-.08-.19-.22-.2-.09,0-.19,0-.28,0-.26,0-.36.07-.36.34,0,.37,0,.75.02,1.12,0,.16.07.22.22.25.14.03.29.05.43.06.14.01.2-.05.2-.19,0-.21,0-.42,0-.63ZM24.26,17.36h0c0,.06,0,.12,0,.17,0,.17-.01.34,0,.51.01.16.08.22.24.21.12,0,.24-.03.36-.06.22-.05.26-.11.27-.32,0-.2,0-.41,0-.61,0-.16,0-.33,0-.49,0-.13-.07-.24-.18-.25-.15-.02-.3-.03-.45-.01-.2.02-.22.05-.23.26,0,.2,0,.4,0,.59Z"/>
    <path class="cls-1" d="M27.39,23.37c0-.25,0-.5,0-.75,0-.22.13-.35.32-.37.21-.02.37.09.42.31.01.06.02.12.02.17,0,.45,0,.9,0,1.35,0,.05,0,.11-.01.16-.05.22-.26.35-.48.3-.17-.04-.25-.15-.26-.35,0-.27,0-.54,0-.8,0,0,0,0,0,0Z"/>
    <path class="cls-1" d="M29.19,23.41c0-.27,0-.54,0-.81,0-.21.12-.33.31-.36.17-.02.3.06.36.22.03.08.04.17.04.26,0,.46,0,.92,0,1.38,0,.03,0,.06,0,.09-.03.27-.24.4-.5.31-.13-.05-.2-.14-.2-.31,0-.01,0-.02,0-.04,0-.25,0-.5,0-.75h0Z"/>
    <path class="cls-1" d="M25.61,23.43c.01-.31.02-.57.03-.83,0-.18.26-.39.44-.35.1.02.17.08.2.17.02.07.03.15.03.22,0,.51,0,1.02,0,1.54,0,.13-.03.25-.16.31-.14.07-.28.06-.42-.03-.09-.05-.12-.14-.12-.24,0-.28-.02-.56-.03-.79Z"/>
    <path class="cls-1" d="M12.65,23.15c0,.33-.01.66-.03.99-.01.22-.11.34-.28.38-.25.06-.47-.1-.47-.35,0-.53,0-1.05,0-1.58,0-.21.14-.34.34-.35.2-.02.34.07.38.28.04.21.05.42.07.62,0,0-.01,0-.02,0Z"/>
    <path class="cls-1" d="M14.38,23.4c0,.26,0,.52,0,.79,0,.19-.09.28-.26.33-.22.06-.4-.04-.44-.27-.01-.06-.01-.13-.01-.19,0-.41,0-.82,0-1.22,0-.1,0-.2.03-.3.03-.19.15-.29.31-.29.2,0,.35.11.37.3.02.15.01.3.02.45,0,.13,0,.27,0,.4,0,0,0,0-.01,0Z"/>
    <path class="cls-1" d="M10.13,23.43c0-.25,0-.5,0-.75,0-.19.09-.31.25-.39.2-.1.39,0,.43.22.02.1.02.21.03.31,0,.42,0,.85,0,1.27,0,.05,0,.09,0,.14-.02.12-.06.23-.19.27-.15.05-.29.04-.41-.06-.08-.06-.09-.16-.1-.25,0-.26,0-.51,0-.77Z"/>
    <path class="cls-1" d="M17.8,20.84c.27,0,.51.26.5.55-.01.28-.24.52-.51.52-.3,0-.5-.27-.49-.53,0-.29.24-.54.51-.53Z"/>
    <path class="cls-1" d="M21.72,21.37c0-.28.22-.53.49-.53.27,0,.51.24.51.53,0,.28-.24.54-.51.54-.26,0-.49-.25-.5-.53Z"/>
    <path class="cls-1" d="M20.37,18.03c.01-.19.02-.38.04-.57.03-.23.21-.32.42-.22.16.07.29.19.29.38,0,.3,0,.59-.02.89,0,.01,0,.02,0,.03-.04.19-.18.34-.34.32-.16-.01-.4-.18-.38-.39.01-.14,0-.29,0-.44,0,0,0,0-.01,0Z"/>
    <path class="cls-1" d="M22.58,18.01c0,.16,0,.33,0,.49,0,.21-.11.32-.3.34-.23.02-.36-.08-.4-.29,0-.03,0-.07,0-.1,0-.28,0-.56,0-.84,0-.1.03-.22.08-.29.1-.14.27-.12.42-.09.13.03.2.14.21.29,0,.17,0,.34,0,.51,0,0,0,0,0,0Z"/>
    <path class="cls-1" d="M18.13,18.01c0,.16,0,.33,0,.49,0,.21-.12.33-.3.34-.19,0-.36-.15-.39-.33-.04-.35-.04-.7,0-1.05.01-.15.11-.24.26-.25.06,0,.12,0,.17,0,.15.02.25.11.25.26,0,.18,0,.36,0,.54,0,0,0,0,0,0Z"/>
    <path class="cls-1" d="M18.91,18.03c.01-.2.01-.37.03-.53.02-.17.14-.29.31-.3.13,0,.31.1.34.23.05.2.07.41.1.62.01.1,0,.2-.01.3,0,.16-.08.29-.2.4-.19.17-.49.07-.53-.18-.03-.18-.03-.37-.04-.53Z"/>
  </g>
</svg>