<svg id="Layer_1" data-name="Layer 1" xmlns="http://www.w3.org/2000/svg" viewBox="0 0 40 40" height="100px" width="100px" transform="rotate(0) scale(1, 1)">
  <defs>
    <style>.cls-1 { fill: #624430; }.cls-2 { fill: #fafafa; }</style>
  </defs>
  <circle class="cls-2" cx="20" cy="20" r="19.96"/>
  <g>
    <path class="cls-1" d="M6.88,19.34s.04-.03.04-.04c.06-.18.19-.28.39-.3,0-.06.01-.11.01-.17,0-1.27,0-2.54,0-3.81,0-.05,0-.1,0-.15.01-.21.17-.36.37-.37.23,0,.39.14.41.35,0,.05,0,.1,0,.15,0,1.27,0,2.54,0,3.81,0,.06,0,.12.01.18h4.11c0-.05.01-.1.01-.14,0-.35,0-.7,0-1.05,0-.06,0-.12.02-.18.05-.17.23-.28.41-.26.2.02.34.17.35.37,0,.36,0,.73,0,1.09,0,.05,0,.1,0,.15.1.03,3.14.03,3.27,0,.03-.09.03-3.54,0-3.69h-3.27c0,.05-.01.1-.01.15,0,.23,0,.46,0,.69,0,.2-.13.34-.32.38-.22.04-.44-.12-.46-.35,0-.02,0-.03,0-.05,0-.41,0-.81,0-1.22,0-.16.07-.29.22-.36.06-.03.13-.04.19-.04.36,0,.71,0,1.07,0,.05,0,.1,0,.16,0,0-.06,0-.12,0-.17,0-.87,0-1.74,0-2.61,0-.07,0-.14.02-.21.04-.18.23-.31.4-.29.2.02.36.17.37.36,0,.04,0,.09,0,.14,0,.87,0,1.75,0,2.62,0,.17,0,.17.17.17.44,0,.89,0,1.33,0,.05,0,.1,0,.16,0,0-.06,0-.1,0-.15,0-.49,0-.98,0-1.46,0-.42.05-.83.2-1.22.49-1.31,1.41-2.13,2.79-2.42.05-.01.1-.02.14-.02.04,0,.09-.02.14-.03,0-.06.01-.11.01-.17,0-.87,0-1.75,0-2.62,0-.05,0-.09,0-.14,0-.16.09-.28.24-.34.15-.06.3-.04.42.08.07.07.11.15.12.25,0,.05,0,.1,0,.15,0,.87,0,1.74,0,2.61v.18c.11.02.21.04.31.06,1.36.25,2.51,1.33,2.85,2.68.08.32.12.64.12.97,0,.48,0,.96,0,1.44v.16s.08.02.11.02c.48,0,.96,0,1.44,0,.03,0,.06,0,.11-.01,0-.06,0-.11,0-.16,0-.89,0-1.77,0-2.66,0-.05,0-.1.01-.15.05-.2.21-.32.4-.31.21,0,.36.16.38.37,0,.04,0,.08,0,.12,0,.87,0,1.74,0,2.61v.17c.06,0,.11.01.15.01.35,0,.7.01,1.05,0,.25-.01.44.17.44.44,0,1.29,0,2.58,0,3.87,0,.06,0,.12.01.18h4.11c0-.06.01-.12.01-.18,0-1.27,0-2.53,0-3.8,0-.05,0-.1,0-.15,0-.21.2-.37.38-.37.21,0,.4.17.4.37,0,.05,0,.1,0,.15,0,1.27,0,2.53,0,3.8,0,.06,0,.11,0,.17.05.02.09.03.13.04.18.06.28.19.28.38,0,.55,0,1.1,0,1.65,0,1.48,0,2.97,0,4.45,0,.06,0,.12-.02.17-.05.17-.21.28-.39.27-.18,0-.33-.13-.37-.31-.01-.06-.02-.12-.02-.18,0-.46,0-.93,0-1.39,0-.05,0-.1,0-.14-.11-.03-24.47-.03-24.61,0v7.36c.09.03,1.92.03,2.06,0,0-.05,0-.11,0-.16,0-.73-.01-1.45,0-2.18.02-.79.22-1.54.64-2.22.19-.31.43-.59.73-.8.38-.27.81-.39,1.27-.34.31.03.6.16.86.34.34.24.6.56.8.92.26.46.42.95.5,1.47.06.34.08.68.08,1.03,0,.6,0,1.2,0,1.8,0,.05,0,.1,0,.16h1.66c0-.1,0-.19,0-.27,0-.08,0-.16.02-.23.04-.2.22-.32.44-.3.18.02.32.18.33.37,0,.1,0,.2,0,.31,0,.04,0,.08,0,.13h5.75s0-.08,0-.12c0-.68.02-1.35,0-2.03-.05-1.08-.56-1.89-1.49-2.43-.45-.26-.93-.36-1.45-.35-1.25.02-2.41.9-2.73,2.18-.06.24-.08.47-.09.72,0,.19-.15.34-.33.37-.18.03-.36-.07-.43-.24-.02-.06-.04-.13-.03-.19.01-.55.12-1.08.37-1.58.55-1.08,1.42-1.77,2.62-2,1.52-.29,2.98.37,3.79,1.65.38.6.56,1.25.57,1.96,0,.64,0,1.27,0,1.91,0,.05,0,.1,0,.15h1.65c0-.05,0-.1,0-.15,0-.67,0-1.34,0-2.02.01-.83.19-1.63.61-2.35.18-.3.39-.56.66-.78.73-.59,1.68-.57,2.39.05.39.34.66.77.86,1.24.18.43.29.88.33,1.34.02.22.03.44.03.66,0,.61,0,1.21,0,1.82,0,.06,0,.11,0,.17.1.03,1.91.03,2.06,0,0-.05,0-.1,0-.15,0-1.28,0-2.56,0-3.84,0-.07,0-.14.02-.21.05-.2.23-.32.45-.29.18.02.32.18.32.38,0,.42,0,.84,0,1.27,0,1.07,0,2.14,0,3.21,0,.29-.16.45-.44.45-.03,0-.07,0-.1,0-8.37,0-16.75,0-25.12,0-.05,0-.1,0-.15,0-.16-.01-.28-.09-.36-.24-.02-.03-.04-.07-.06-.1,0-4.14,0-8.28,0-12.42ZM22.41,19.8c0,.08.01.15.02.22.01.2.04.41.03.61,0,.31-.33.49-.59.34-.14-.08-.2-.21-.2-.37,0-.39-.05-.78-.15-1.15-.11-.41-.27-.8-.53-1.14-.14-.18-.29-.33-.49-.44-.32-.17-.64-.17-.95,0-.11.06-.21.14-.3.23-.23.21-.38.47-.51.75-.25.55-.36,1.13-.37,1.73,0,.79,0,1.57,0,2.36,0,.02,0,.04,0,.06,0,.09.01.1.11.1.01,0,.02,0,.04,0,1,0,2.01,0,3.01,0,.04,0,.09,0,.14,0,0-.05,0-.1,0-.14,0-.23,0-.47,0-.7,0-.17.13-.34.29-.37.18-.03.34,0,.44.18.04.07.05.15.06.23,0,.22,0,.43,0,.65,0,.04,0,.09,0,.14.06,0,.11,0,.17,0,.58,0,1.16,0,1.73,0,.17,0,.17,0,.17-.17,0-.6,0-1.21,0-1.81,0-.05,0-.09,0-.14.01-.18.16-.33.34-.35.21-.02.39.1.43.28.01.06.01.12.01.18,0,.6,0,1.21,0,1.81,0,.06,0,.11.01.18.06,0,.1,0,.14,0,.45,0,.91,0,1.36,0,.02,0,.05,0,.07,0,.05,0,.08-.03.08-.08,0-.05,0-.09,0-.14,0-.61,0-1.22,0-1.83,0-.08,0-.16.05-.22.12-.18.27-.22.44-.18.16.03.28.18.29.36,0,.04,0,.08,0,.12,0,.6,0,1.2,0,1.8,0,.06,0,.11.01.17.05,0,.08,0,.11,0,.47,0,.94,0,1.41,0,.02,0,.04,0,.06,0,.04,0,.07-.03.07-.07,0-.04,0-.07,0-.11,0-.48,0-.96,0-1.44,0-.16,0-.32,0-.48,0-.18.15-.33.32-.36.21-.03.39.08.45.26.02.06.02.13.02.19,0,.61,0,1.21,0,1.82,0,.06,0,.11.01.16.14.03,1.95.02,2.05,0,.03-.12.02-3.18,0-3.28h-9.89ZM7.72,23.1c.06,0,.11,0,.16,0,.58,0,1.16,0,1.75,0,.03,0,.06,0,.09,0,.05,0,.08-.03.08-.08,0-.04,0-.07,0-.11,0-.61,0-1.22,0-1.83,0-.08,0-.16.04-.23.07-.17.26-.25.44-.21.16.03.29.18.3.36,0,.04,0,.08,0,.12,0,.6,0,1.2,0,1.8,0,.06,0,.11.01.18h.16c.41,0,.83,0,1.24,0,.05,0,.1,0,.15,0,.1,0,.1-.01.11-.11,0-.03,0-.07,0-.1,0-.59,0-1.18,0-1.77,0-.05,0-.09,0-.14.01-.18.16-.33.34-.35.21-.02.39.1.43.28.01.06.01.11.01.17,0,.61,0,1.21,0,1.82,0,.06,0,.11.01.18.05,0,.09,0,.13,0,.46,0,.93,0,1.39,0,.02,0,.04,0,.06,0,.05,0,.07-.03.08-.08,0-.04,0-.07,0-.11,0-.61,0-1.22,0-1.83,0-.08,0-.16.04-.23.07-.17.26-.25.44-.21.16.03.29.18.3.36,0,.04,0,.09,0,.14,0,.61,0,1.21,0,1.82,0,.13,0,.14.14.14.6,0,1.2,0,1.8,0,.04,0,.09,0,.14-.01,0-.06,0-.11,0-.16,0-.75,0-1.49,0-2.24,0-.22.02-.45.04-.67,0-.07,0-.14.01-.21-.18-.03-9.8-.02-9.9,0v3.28ZM20.42,16.99s.08.03.11.04c.21.06.39.16.57.29.3.22.54.5.73.82.15.24.26.5.35.77.02.07.06.1.13.1.16,0,.32,0,.48,0,.03,0,.06,0,.09-.01,0-.02.01-.04.01-.06,0-1.87,0-3.74,0-5.61,0-.02,0-.04,0-.06,0,0,0,0,0-.01,0,0,0,0-.03-.02-.03,0-.08,0-.13,0-1.81,0-3.62,0-5.43,0-.03,0-.06,0-.09,0-.05,0-.08.02-.08.07,0,.02,0,.05,0,.07,0,1.82,0,3.65,0,5.47,0,.04,0,.09,0,.15.22,0,.43,0,.63,0,.02,0,.05-.03.06-.05.02-.04.03-.08.04-.11.14-.38.33-.74.59-1.06.27-.33.59-.59,1-.73q.16-.05.16-.22c0-.38,0-.76,0-1.14,0-.19.15-.34.33-.37.18-.03.37.08.43.26.02.06.02.12.02.18,0,.36,0,.72,0,1.08,0,.05,0,.1,0,.16ZM13.88,31.29c0-.06,0-.1,0-.14,0-.66,0-1.32,0-1.98,0-.36-.04-.71-.13-1.06-.1-.41-.26-.79-.5-1.14-.15-.2-.32-.38-.55-.5-.31-.16-.62-.16-.93,0-.15.08-.27.18-.38.3-.2.22-.35.47-.47.74-.22.52-.33,1.07-.33,1.64,0,.67,0,1.34,0,2,0,.04,0,.08.01.13h3.29ZM29.45,31.29c0-.06.01-.11.01-.16,0-.63,0-1.25,0-1.88,0-.36-.04-.71-.12-1.06-.1-.41-.25-.81-.49-1.16-.14-.21-.31-.39-.53-.52-.13-.08-.27-.13-.43-.14-.3-.03-.56.08-.79.27-.19.16-.34.35-.46.57-.32.57-.47,1.19-.49,1.85-.01.7,0,1.41,0,2.11,0,.04,0,.08,0,.12h3.29ZM26.98,15.3h-3.27c-.03.14-.02,3.59,0,3.69h3.26c.03-.1.04-3.56,0-3.69ZM22.86,12.43c0-.06,0-.1-.02-.15-.32-1.6-1.85-2.55-3.32-2.28-1.18.21-2.11,1.13-2.33,2.3,0,.04,0,.08,0,.12h5.68Z"/>
    <path class="cls-1" d="M19.63,29.84c0-.21,0-.42,0-.63,0-.18.12-.32.3-.37.16-.04.35.03.43.19.03.06.05.12.05.19,0,.42,0,.84,0,1.26,0,.2-.15.35-.34.38-.18.03-.36-.08-.42-.26-.02-.05-.02-.1-.02-.16,0-.2,0-.4,0-.6h0Z"/>
    <path class="cls-1" d="M24.73,25.53c-.08,0-.16,0-.23,0-.19,0-.35-.15-.37-.35-.02-.19.1-.38.28-.43,0,0,.02,0,.02,0,.2,0,.39-.02.59,0,.21.02.32.21.31.43-.02.2-.21.36-.38.34-.07,0-.14,0-.21,0h0Z"/>
    <path class="cls-1" d="M23.09,25.53c-.07,0-.15,0-.22,0-.2,0-.35-.15-.38-.35-.02-.18.1-.38.28-.42.21-.04.42-.04.63,0,.18.04.3.23.28.41-.02.2-.18.35-.37.36-.08,0-.16,0-.23,0h0Z"/>
  </g>
</svg>