<svg id="Layer_1" data-name="Layer 1" xmlns="http://www.w3.org/2000/svg" viewBox="0 0 40 40" height="100px" width="100px" transform="rotate(0) scale(1, 1)">
  <defs>
    <style>.cls-1 { fill: #624430; }.cls-2 { fill: #fafafa; }</style>
  </defs>
  <circle class="cls-2" cx="20" cy="20" r="19.96"/>
  <g>
    <path class="cls-1" d="M7.52,30.92c0-.5,0-.99,0-1.49,0-.21.03-.35.3-.32v-2.58c-.09,0-.18-.02-.28-.03v-1.26h1.5v-1.43h1.18v-1.15h-1.25v-2.03h.75c.18-.42.34-.8.5-1.18.02-.06.04-.12.04-.18,0-.59,0-1.19,0-1.78,0-.04-.01-.08-.02-.15h-.76v-1.7c.1-.01.19-.02.3-.03.05-.15.09-.31.14-.47.32-.95,1.17-1.57,2.17-1.57.14,0,.28,0,.42,0,.7-.03,1.36.05,1.94.54.02-.12.04-.2.06-.3.46,0,.91,0,1.37,0,.19,0,.29-.06.37-.23.13-.28.28-.55.42-.83.43-.87,1.14-1.35,2.09-1.51.15-.22-.11-.55.17-.77-.21-.7-.16-.81.48-1.32.2-.16.37-.37.57-.58.07.06.13.11.19.16.22.19.43.39.65.58.31.27.45.67.26,1.02-.09.16.06.2.06.31,0,.19,0,.39,0,.59.16.04.29.06.43.1.77.22,1.34.69,1.71,1.41.15.29.3.58.43.88.06.14.16.19.31.19.4,0,.79,0,1.22,0,0,.16.02.3.02.49.42-.41.88-.69,1.43-.7.59-.02,1.2-.05,1.76.08.88.19,1.41.83,1.63,1.71.02.08.04.15.06.23.1,0,.19.01.29.02v1.7h-.88c.02,1.12-.17,2.22.39,3.28h1.01v2.03h-1.32v1.16h1.17v1.45c.43,0,.83,0,1.24,0q.35,0,.35.37c0,.3,0,.6,0,.9-.12.01-.21.02-.32.03v2.55q.44.1.44.56c0,.42,0,.85,0,1.27h-3.35v-5.08h-4.11v3.04c.15.01.29.02.46.03v.85h.84v1.16h-12.75v-1.19h.84v-.83c.16,0,.29-.02.42-.02v-3.04h-4.13v5.08h-3.19ZM30.49,21.07H9.4v1.11h21.08v-1.11ZM21.74,17.78h2.45c-.2-.4-.38-.77-.56-1.14-.43-.87-1.12-1.4-2.04-1.63-.09-.02-.25-.06-.28-.02-.14.2-.34.12-.51.12-.52.01-1.05.02-1.57,0-.22,0-.5.14-.66-.15-.01-.02-.08,0-.13,0-.17.04-.35.07-.52.12-1.35.4-1.83,1.56-2.36,2.7h2.58c0-.3.01-.59,0-.87-.01-.22.04-.31.29-.31,1.01.01,2.02,0,3.03,0,.09,0,.17,0,.29.01v1.15ZM18.88,13.78c-.16-.38-.12-.72.16-.99.3-.29.62-.54.93-.81.29.25.62.49.88.78.14.15.21.38.27.58.03.13-.03.29-.05.43h2.2c-.25-.44-.43-.86-.7-1.23-.37-.52-.91-.81-1.56-.84-.68-.03-1.36-.02-2.04,0-1.29.03-1.92.96-2.29,2.08h2.19ZM24.18,19.67h-8.72c.09.31.17.62.26.92h8.18c.09-.31.19-.61.28-.92ZM29.36,20.6c-.07-.9-.79-1.68-1.68-1.78-.45-.05-.9-.06-1.35-.03-.95.06-1.64.64-1.89,1.55-.02.08-.02.16-.04.26h4.96ZM15.23,20.59c-.01-.1-.02-.19-.04-.27-.2-.73-.65-1.27-1.38-1.43-.55-.12-1.14-.09-1.71-.09-.23,0-.47.08-.68.18-.68.32-1.04.87-1.17,1.61h4.98ZM21.15,24.87v3.86s.06,0,.09,0c.01-.23.03-.45.04-.68.13,0,.24-.02.35-.02v-4.27h-3.36v4.26c.13.01.24.02.36.04.01.22.02.43.03.64.02,0,.05,0,.07,0v-3.83h2.42ZM29.62,15.6c0-.08,0-.15-.02-.21-.18-.75-.88-1.35-1.66-1.38-.38-.02-.76-.02-1.14,0-.64.03-1.13.35-1.45.89-.12.2-.18.44-.29.69h4.56ZM14.76,15.6c-.12-.89-.85-1.56-1.72-1.58-.33,0-.65,0-.98,0-.46,0-.85.15-1.19.43-.36.3-.55.69-.64,1.15h4.53ZM19.22,25.31v3.41h1.45c0-1.1,0-2.19,0-3.27,0-.05-.08-.13-.12-.13-.44,0-.88,0-1.33,0ZM14.02,30.58c.11,0,.2,0,.3,0,3.75,0,7.49,0,11.24,0,.36,0,.38-.03.28-.38h-11.82v.38ZM14.87,29.34v.38h10.15v-.38h-10.15ZM19.77,18.24h-1.56c-.69,0-.68,0-.69.69,0,.22.07.28.29.28,1.18,0,2.35,0,3.53,0,.72,0,.71,0,.7-.73,0-.19-.06-.24-.25-.24-.67,0-1.34,0-2.01,0ZM22.13,22.65v5.38c.12,0,.21,0,.3,0q.37,0,.37-.37c0-1.53,0-3.06.01-4.59,0-.14,0-.28,0-.42h-.68ZM17.78,27.98v-5.32h-.69c0,.12,0,.23,0,.33,0,1.49,0,2.99.01,4.48q0,.61.61.54s.02,0,.07-.04ZM13.72,23.77c-.71,0-1.41,0-2.11,0-.05,0-.13.13-.13.2-.01.38,0,.76,0,1.14,0,.19.06.25.25.24.59,0,1.19,0,1.78,0,.08,0,.15-.02.23-.03v-1.56ZM27.17,23.77c-.3,0-.6,0-.9,0-.18,0-.26.04-.25.23.01.38,0,.76,0,1.14,0,.16.05.22.21.22.62,0,1.24,0,1.86,0,.17,0,.21-.07.21-.22,0-.38,0-.76,0-1.14,0-.17-.05-.24-.23-.23-.3.01-.6,0-.9,0ZM14.84,22.66h-4.13v1.13c.11,0,.19,0,.29-.01.01-.15.02-.29.03-.44h3.12c.01.15.03.29.04.44h.65v-1.12ZM29.12,23.78v-1.12h-4.08v1.12h.53c.01-.15.02-.29.03-.46.11,0,.21,0,.3,0,.81,0,1.61,0,2.42,0q.41,0,.46.41s.02.03.03.05h.32ZM24.8,14.24c-1.17,0-2.29,0-3.41,0-.05,0-.09.1-.14.16.06.04.12.1.18.11.62.11,1.18.35,1.67.74.06.05.16.08.24.08.39,0,.78.01,1.16,0,.07,0,.2-.1.21-.16.04-.29.06-.59.08-.94ZM18.6,14.26h-3.77c.13.39.24.73.36,1.08.21,0,.39-.01.58,0,.46.04.86-.04,1.25-.34.45-.35,1.02-.47,1.6-.53,0-.08,0-.15,0-.22ZM24.55,28.89v-6.23h-1.28v.61c.23,0,.44.02.65,0,.25-.02.33.06.33.32-.01,1.66,0,3.31,0,4.97,0,.11,0,.22.02.34h.29ZM29.59,26.53c0,.83,0,1.65,0,2.47,0,.04.07.11.11.11.28,0,.56,0,.84,0v-2.59h-.96ZM16.63,23.76q-.57-.07-.57.46c0,1.39,0,2.78,0,4.17,0,.07,0,.14,0,.21,0,.04.05.08.07.12.03-.04.09-.08.1-.12.01-.18,0-.36,0-.55.16-.01.27-.02.4-.03v-4.27ZM32.04,29.58c-.59,0-1.14,0-1.69,0q-.79,0-.74.8s0,.02,0,.03c.06.06.11.17.17.17.7.01,1.4.01,2.09,0,.06,0,.16-.09.17-.14.02-.27,0-.54,0-.85ZM23.66,28.72s.06,0,.09,0v-4.96h-.48v4.27c.13.01.24.02.39.03v.66ZM9.31,26.53c0,.66,0,1.28,0,1.91,0,.71,0,.7.7.68.18,0,.22-.07.22-.24,0-.73,0-1.45,0-2.18,0-.06-.02-.12-.03-.18h-.9ZM15.35,22.65s-.02.08-.02.11c0,1.98,0,3.97,0,5.95,0,.21.11.2.28.15v-5.59h1.03v-.61h-1.28ZM10.21,30.58v-.98h-2.22c0,.08-.02.14-.02.2q-.03.79.75.79c.49,0,.99,0,1.49,0ZM29.97,16.08h-2.94c.29.28.55.53.81.78.02.02.06.03.1.03.68,0,1.35,0,2.04,0v-.81ZM21.63,22.66h-3.36v.59h3.36v-.59ZM24.57,18.26h-2.08c0,.28,0,.54,0,.8,0,.05.1.14.16.14.57.01,1.15.01,1.72,0,.06,0,.17-.11.18-.18.02-.24,0-.49,0-.76ZM21.28,17.08h-2.67v.7h2.67v-.7ZM12.61,16.07h-2.72v.81c.44,0,.85,0,1.27,0,.33,0,.67.07.87-.3.03-.05.1-.07.15-.11.13-.12.26-.25.43-.41ZM17.06,19.19v-.93h-1.71v.93h1.71ZM29.06,18.91v-1.56s-.05-.02-.07-.02c-.26,0-.53,0-.79,0-.28,0-.46.14-.48.41-.02.2,0,.4,0,.53.48.23.92.43,1.34.64ZM13.54,18.26c.5.23.9.41,1.32.6,0-.28,0-.56,0-.84,0-.07.03-.15.07-.21.11-.15.23-.28.34-.42-.51-.06-.96-.07-1.42-.06-.05,0-.13.06-.15.11-.07.29-.12.58-.17.82ZM28.78,24.25v1.12c.12,0,.26.04.31,0,.23-.22.51-.1.77-.13.15-.01.3,0,.46,0v-.98h-1.53ZM9.5,25.19c.52.05,1.01.1,1.51.14v-1.08h-1.51v.93ZM8.29,26.69v2.41h.57v-2.41h-.57ZM12.89,16.07c.29.29.55.55.81.8.02.02.05.02.07.02.44,0,.88,0,1.32,0v-.82h-2.2ZM10.71,18.81c.4-.17.79-.34,1.21-.51,0-.16.04-.37-.01-.56-.04-.15-.16-.37-.27-.39-.3-.06-.61-.02-.93-.02v1.48ZM25.02,18.71c.35-.13.68-.26,1.03-.39.02-.33.07-.68-.18-.98h-1.37c.1.25.15.52.52.47v.9ZM31.02,26.68v2.41h.54v-2.41h-.54ZM24.75,16.89c.37,0,.72,0,1.06,0,.05,0,.12-.03.16-.06.15-.12.29-.25.43-.39.11-.11.22-.23.35-.36h-2v.81ZM19.93,9.19c-.06.08-.12.18-.2.25-.09.08-.2.13-.3.21-.24.19-.24.49,0,.68.28.22.78.22,1.07,0,.25-.2.26-.47.01-.67-.18-.15-.35-.29-.58-.47ZM19.98,12.61c-.19.15-.4.26-.55.43-.1.11-.19.31-.16.43.03.13.21.27.34.31.22.05.47.05.68,0,.14-.04.3-.19.36-.34.04-.1-.06-.29-.15-.39-.15-.17-.35-.29-.53-.44ZM31.89,26.06q.04-.38-.31-.38c-.56,0-1.11,0-1.67,0-.09,0-.18.01-.27.02v.37h2.24ZM7.96,25.7v.36h2.24v-.36h-2.24ZM14.86,24.25h-.65s-.02.05-.02.07c0,.22,0,.44,0,.66q0,.4.4.39s.08.01.1,0c.06-.05.16-.11.16-.17.02-.31,0-.62,0-.95ZM26.9,16.6c-.13.1-.26.18-.37.3-.09.1-.2.24-.18.34.02.11.17.24.28.27.16.04.36.04.52,0,.11-.03.23-.15.27-.26.03-.08-.03-.22-.1-.3-.12-.13-.28-.23-.42-.35ZM12.72,16.58c-.05.06-.1.14-.17.2-.06.06-.15.09-.22.15-.19.14-.19.36,0,.51.16.12.6.14.78.03.24-.15.25-.38.02-.55-.13-.1-.26-.2-.41-.33ZM25.55,25.35v-1.1h-.54c0,.24,0,.47,0,.7q0,.45.45.42s.05-.01.09-.02ZM20.8,14.65c0-.11,0-.19-.01-.29h-1.69v.29h1.71ZM19.21,11.24h1.47c0-.11,0-.2-.01-.29h-1.46v.29ZM16.67,28.65s.05.06.07.09c.43,0,.86,0,1.29,0,.21,0,.16-.12.13-.26-.44,0-.87,0-1.3,0-.07,0-.13.1-.19.15ZM23.23,28.58s-.05-.06-.07-.09c-.43,0-.86,0-1.29,0-.21,0-.17.11-.13.26.44,0,.87,0,1.3,0,.07,0,.13-.1.19-.16ZM24.28,16.91v-1.1h-.61c.2.36.39.71.61,1.1ZM16.08,15.81h-.5v.88c.18-.32.34-.59.5-.88ZM26.54,18.25h.73c0-.09-.02-.16-.02-.23-.76,0-.8-.06-.71.23ZM12.37,18.27c.22,0,.41,0,.6,0,.05,0,.1-.08.16-.12-.05-.04-.09-.12-.14-.13-.2-.01-.4,0-.61,0v.26Z"/>
    <path class="cls-1" d="M23.55,21.26h.41v.57h-.41v-.57Z"/>
    <path class="cls-1" d="M20.19,21.27v.56h-.42v-.56h.42Z"/>
    <path class="cls-1" d="M12.22,21.25h.41v.58h-.41v-.58Z"/>
    <path class="cls-1" d="M15.99,21.83v-.57h.42v.57h-.42Z"/>
    <path class="cls-1" d="M27.73,21.26v.57h-.4v-.57h.4Z"/>
    <path class="cls-1" d="M29.84,21.25h.4v.57h-.4v-.57Z"/>
    <path class="cls-1" d="M28.98,21.83h-.4v-.56h.4v.56Z"/>
    <path class="cls-1" d="M26.07,21.25h.41v.57h-.41v-.57Z"/>
    <path class="cls-1" d="M24.81,21.26h.4v.57h-.4v-.57Z"/>
    <path class="cls-1" d="M22.7,21.83h-.41v-.57h.41v.57Z"/>
    <path class="cls-1" d="M21.43,21.83h-.4v-.56h.4v.56Z"/>
    <path class="cls-1" d="M18.94,21.26v.56h-.42v-.56h.42Z"/>
    <path class="cls-1" d="M14.75,21.83v-.56h.42v.56h-.42Z"/>
    <path class="cls-1" d="M13.89,21.83h-.4v-.57h.4v.57Z"/>
    <path class="cls-1" d="M11.39,21.83h-.41v-.57h.41v.57Z"/>
    <path class="cls-1" d="M10.12,21.83h-.41v-.57h.41v.57Z"/>
    <path class="cls-1" d="M17.67,21.83h-.41v-.57h.41v.57Z"/>
    <path class="cls-1" d="M21.65,18.5s.01.1.02.15c0,.11,0,.23,0,.36-.15,0-.28,0-.4,0-.14-.5-.07-.59.39-.5Z"/>
    <path class="cls-1" d="M19.97,19.02h-.4v-.51c.44-.08.48-.04.4.51Z"/>
    <path class="cls-1" d="M17.9,18.48h.4v.52h-.4v-.52Z"/>
  </g>
</svg>