<svg id="Layer_1" data-name="Layer 1" xmlns="http://www.w3.org/2000/svg" viewBox="0 0 40 40" height="100px" width="100px" transform="rotate(0) scale(1, 1)">
  <defs>
    <style>.cls-1 { fill: #624430; }.cls-2 { fill: #fafafa; }</style>
  </defs>
  <circle class="cls-2" cx="20" cy="20" r="19.96"/>
  <g>
    <path class="cls-1" d="M21.04,9.87h-1.75c.19-.31.33-.59.53-.82.21-.24.58-.2.78.08.16.21.27.46.44.74Z"/>
    <path class="cls-1" d="M29.27,14.65h-1.31c.15-.23.26-.46.42-.63.15-.16.41-.13.55.06.13.17.22.36.34.57Z"/>
    <path class="cls-1" d="M10.89,14.65c.13-.22.22-.42.36-.58.17-.2.45-.19.61.02.12.16.21.35.33.56h-1.3Z"/>
    <path class="cls-1" d="M20.15,7.75c.14,0,.29,0,.43,0,.13,0,.24.06.22.2-.02.08-.13.19-.2.19-.31.02-.61.02-.92,0-.07,0-.14-.13-.21-.19.07-.06.13-.17.21-.18.15-.03.31,0,.47,0h0Z"/>
    <path class="cls-1" d="M20.33,6.76c0,.14,0,.29,0,.43,0,.13-.06.24-.19.22-.08-.01-.19-.13-.19-.2-.02-.3-.01-.6,0-.9,0-.13.07-.23.21-.22.14,0,.19.11.19.24,0,.14,0,.29,0,.43Z"/>
    <path class="cls-1" d="M11.51,13.07c.11,0,.23-.02.34,0,.06.01.15.08.15.13,0,.05-.08.15-.13.15-.24.02-.48.02-.72,0-.05,0-.13-.1-.13-.15,0-.05.09-.12.15-.13.11-.02.23,0,.34,0Z"/>
    <path class="cls-1" d="M28.58,13.37c-.11,0-.22.02-.32,0-.07-.02-.12-.1-.17-.15.06-.05.11-.14.18-.14.22-.02.44-.02.66,0,.06,0,.12.09.17.14-.06.05-.11.13-.18.15-.11.02-.23,0-.34,0Z"/>
    <path class="cls-1" d="M11.66,12.34c0,.11.01.23,0,.34,0,.05-.09.14-.13.13-.06,0-.15-.08-.16-.13-.02-.24-.01-.48,0-.72,0-.05.1-.13.14-.12.06.01.14.08.15.14.02.12,0,.24,0,.36Z"/>
    <path class="cls-1" d="M28.74,12.32c0,.12.01.24,0,.36,0,.05-.08.13-.13.13-.05,0-.14-.07-.14-.11-.01-.25-.01-.5,0-.74,0-.04.1-.13.14-.12.06.02.13.09.14.15.02.11,0,.23,0,.34h0Z"/>
    <path class="cls-1" d="M15.17,29.78c-.02-.2.03-.38.26-.46.16-.05.31-.01.42.12.12.15.13.52.02.69-.09.15-.23.21-.4.17-.21-.04-.31-.2-.31-.53Z"/>
    <path class="cls-1" d="M27.91,29.79c0,.22-.03.4-.24.49-.18.08-.34.03-.46-.12-.12-.15-.12-.58.01-.73.13-.15.29-.18.46-.1.2.09.23.27.22.45Z"/>
    <path class="cls-1" d="M11.97,29.81c.02.2-.02.38-.22.47-.18.08-.34.04-.46-.11-.13-.16-.13-.57,0-.73.13-.15.29-.18.47-.1.2.09.23.28.21.47Z"/>
    <path class="cls-1" d="M13.3,29.82c.02.19-.03.35-.21.45-.16.09-.36.05-.48-.1-.14-.17-.13-.58,0-.74.12-.14.33-.17.48-.08.18.11.2.28.19.46Z"/>
    <path class="cls-1" d="M26.59,29.82c0,.3-.12.5-.35.49-.12,0-.33-.09-.35-.17-.05-.21-.05-.44,0-.65.02-.08.22-.17.35-.17.24-.01.36.18.36.51Z"/>
    <path class="cls-1" d="M25.26,29.82c0,.31-.12.5-.35.49-.13,0-.3-.09-.36-.19-.12-.2-.11-.44.02-.65.09-.14.23-.18.39-.15.22.04.31.2.31.51Z"/>
    <path class="cls-1" d="M13.84,29.79c0-.3.11-.48.34-.48.12,0,.29.07.36.16.14.2.14.46,0,.66-.06.1-.23.17-.36.17-.23,0-.35-.19-.34-.51Z"/>
    <path class="cls-1" d="M23.93,29.82c.02.2-.02.38-.22.47-.18.08-.34.04-.46-.11-.13-.16-.13-.57,0-.73.13-.15.29-.18.47-.1.2.09.23.28.21.47Z"/>
    <path class="cls-1" d="M19.9,29.83s0,.1,0,.16c-.04.29-.37.43-.61.25-.24-.17-.24-.73.02-.87.1-.06.27-.06.38-.02.17.08.2.25.21.48Z"/>
    <path class="cls-1" d="M7.18,29.81c0-.2.06-.3.16-.41.13-.15.42-.12.56.02.16.17.17.58,0,.75-.14.14-.35.22-.53.07-.1-.08-.2-.19-.2-.43Z"/>
    <path class="cls-1" d="M10.64,29.82c.02.22-.03.4-.27.48-.18.06-.33,0-.43-.15-.12-.17-.1-.57.02-.71.12-.14.28-.17.45-.1.21.09.24.28.23.48Z"/>
    <path class="cls-1" d="M28.46,29.79c0-.3.09-.47.31-.47.12,0,.28.06.37.14.13.12.14.53.02.67-.08.09-.23.17-.36.18-.23,0-.35-.18-.34-.51Z"/>
    <path class="cls-1" d="M22.6,29.8c0,.17-.04.32-.14.43-.13.14-.36.12-.5-.02-.16-.15-.17-.61-.02-.78.13-.14.37-.19.5-.05.1.11.16.21.16.43Z"/>
    <path class="cls-1" d="M20.53,29.8c0-.26.02-.38.22-.47.17-.08.34-.04.46.11.12.14.12.57,0,.71-.11.14-.26.19-.44.13-.23-.08-.25-.22-.25-.49Z"/>
    <path class="cls-1" d="M18.57,29.81c0,.23-.05.32-.15.43-.13.14-.37.1-.5-.04-.14-.15-.15-.6-.01-.76.13-.15.37-.19.5-.06.1.1.16.25.16.44Z"/>
    <path class="cls-1" d="M16.49,29.81c0-.17.08-.34.19-.44.13-.13.36-.08.48.06.15.16.15.6,0,.76-.12.14-.35.19-.48.06-.11-.11-.19-.25-.19-.45Z"/>
    <path class="cls-1" d="M30.55,29.81c.01.2-.02.38-.22.47-.18.08-.34.04-.46-.11-.13-.15-.12-.58,0-.73.13-.15.29-.18.47-.1.2.09.22.28.21.47Z"/>
    <path class="cls-1" d="M31.85,29.79c0,.22-.03.4-.24.49-.18.08-.34.03-.46-.12-.12-.15-.12-.58.01-.73.13-.15.29-.18.46-.1.2.09.23.27.22.45Z"/>
    <path class="cls-1" d="M32.4,29.79c0-.3.09-.47.31-.47.12,0,.28.06.37.14.13.12.14.53.02.67-.08.09-.23.17-.36.18-.23,0-.35-.18-.34-.51Z"/>
    <path class="cls-1" d="M34.48,29.81c.01.2-.02.38-.22.47-.18.08-.34.04-.46-.11-.13-.15-.12-.58,0-.73.13-.15.29-.18.47-.1.2.09.22.28.21.47Z"/>
    <path class="cls-1" d="M35.63,29.81c.01.2-.02.38-.22.47-.18.08-.34.04-.46-.11-.13-.15-.12-.58,0-.73.13-.15.29-.18.47-.1.2.09.22.28.21.47Z"/>
    <path class="cls-1" d="M8.56,29.8c0-.35.16-.53.43-.49.23.03.33.19.33.49,0,.32-.1.48-.33.52-.27.04-.44-.15-.44-.51Z"/>
    <path class="cls-1" d="M4.37,29.81c0-.2.06-.3.16-.41.13-.15.42-.12.56.02.16.17.17.58,0,.75-.14.14-.35.22-.53.07-.1-.08-.2-.19-.2-.43Z"/>
    <path class="cls-1" d="M5.75,29.8c0-.35.16-.53.43-.49.23.03.33.19.33.49,0,.32-.1.48-.33.52-.27.04-.44-.15-.44-.51Z"/>
    <path class="cls-1" d="M20.84,15.59c0,.21,0,.41,0,.62,0,.21-.1.32-.31.33-.28.01-.56.01-.83,0-.19,0-.3-.12-.3-.32,0-.42-.01-.84,0-1.26.02-.43.35-.71.76-.69.38.02.67.33.68.74,0,.19,0,.38,0,.58ZM20.27,15.94c0-.32,0-.62,0-.91,0-.06-.09-.12-.14-.18-.05.04-.13.09-.13.13-.01.32,0,.63,0,.96h.29Z"/>
    <path class="cls-1" d="M20.12,17.33c-.17,0-.34,0-.51,0-.21,0-.33-.11-.33-.29,0-.18.11-.28.32-.29.35,0,.7,0,1.05,0,.19,0,.31.12.31.28,0,.16-.12.28-.31.29-.18,0-.36,0-.54,0Z"/>
    <path class="cls-1" d="M20.13,18.62c-.23,0-.38-.15-.37-.39,0-.22.19-.4.39-.39.2,0,.39.21.39.41,0,.21-.19.38-.41.38Z"/>
    <path class="cls-1" d="M10.97,17.96c0-.15,0-.3,0-.45.01-.3.25-.53.54-.53.29,0,.53.23.54.52,0,.31,0,.63,0,.94,0,.15-.08.24-.23.25-.21,0-.41,0-.62,0-.16,0-.23-.09-.23-.24,0-.16,0-.33,0-.49ZM11.41,18.24s.04.03.05.04c.05-.04.14-.08.14-.12.02-.2.01-.4,0-.6,0-.04-.06-.08-.1-.11-.03.04-.09.08-.1.12,0,.23,0,.45,0,.68Z"/>
    <path class="cls-1" d="M11.51,18.86c.14,0,.29-.02.42,0,.08.02.19.12.19.19,0,.07-.1.21-.17.22-.3.02-.6.02-.89,0-.07,0-.17-.14-.17-.22,0-.07.11-.18.19-.2.13-.03.28,0,.42,0Z"/>
    <path class="cls-1" d="M11.53,19.84c.22,0,.4.18.39.39,0,.2-.21.4-.41.39-.21,0-.38-.19-.38-.41,0-.23.15-.38.39-.37Z"/>
    <path class="cls-1" d="M28.04,17.99c0-.15,0-.3,0-.45.02-.32.26-.55.55-.55.29,0,.52.21.54.52.02.31.01.63,0,.94,0,.16-.09.25-.26.25-.19,0-.38,0-.58,0-.18,0-.26-.1-.26-.27,0-.15,0-.3,0-.45h0ZM28.48,18.24c.2,0,.21,0,.21-.13,0-.16.01-.33,0-.49,0-.06-.07-.11-.1-.17-.03.05-.09.11-.1.16-.01.2,0,.41,0,.63Z"/>
    <path class="cls-1" d="M28.59,19.3c-.14,0-.27,0-.41,0-.14-.01-.25-.1-.21-.23.02-.08.14-.19.23-.19.27-.02.54-.03.81,0,.08,0,.15.13.23.2-.07.08-.13.19-.22.22-.13.04-.28,0-.42,0Z"/>
    <path class="cls-1" d="M28.59,20.59c-.24,0-.38-.15-.38-.38,0-.22.17-.4.38-.4.2,0,.4.2.4.4,0,.21-.18.38-.4.38Z"/>
    <path class="cls-1" d="M15.6,22.78c0-.27.12-.41.35-.41.22,0,.34.14.34.39,0,.26-.12.42-.34.42-.22,0-.35-.15-.35-.41Z"/>
    <path class="cls-1" d="M18.28,22.79c0,.25-.12.4-.33.4-.22,0-.36-.16-.36-.41,0-.27.12-.41.35-.41.23,0,.34.13.34.42Z"/>
    <path class="cls-1" d="M19.59,22.78c0-.28.11-.41.34-.41.23,0,.35.15.35.41,0,.25-.13.4-.34.4-.22,0-.35-.14-.35-.41Z"/>
    <path class="cls-1" d="M22.26,22.77c0,.27-.12.42-.34.42-.22,0-.35-.16-.35-.42,0-.26.13-.41.36-.4.22,0,.33.14.33.4Z"/>
    <path class="cls-1" d="M23.57,22.78c0-.28.11-.41.34-.41.23,0,.35.14.35.41,0,.25-.13.4-.34.4-.22,0-.35-.14-.35-.41Z"/>
    <path class="cls-1" d="M23.1,22.8c0,.11,0,.23,0,.34,0,.14-.06.19-.19.18-.13,0-.18-.05-.18-.18,0-.24,0-.48,0-.73,0-.13.06-.17.18-.17.14,0,.2.05.19.18,0,.12,0,.24,0,.36Z"/>
    <path class="cls-1" d="M25.09,22.78c0,.11,0,.23,0,.34,0,.13-.04.2-.18.19-.14,0-.18-.06-.18-.2,0-.24,0-.47,0-.71,0-.14.06-.17.18-.17.12,0,.19.04.18.17,0,.12,0,.24,0,.36Z"/>
    <path class="cls-1" d="M21.1,22.79c0,.11,0,.23,0,.34,0,.13-.03.19-.18.19-.14,0-.19-.06-.18-.19,0-.24,0-.48,0-.72,0-.15.08-.16.19-.16.11,0,.17.03.17.16,0,.13,0,.26,0,.38Z"/>
    <path class="cls-1" d="M18.76,22.77c0-.11,0-.23,0-.34,0-.12.03-.19.16-.18.12,0,.2.02.2.17,0,.24,0,.48,0,.72,0,.15-.08.17-.2.18-.14,0-.17-.07-.16-.19,0-.12,0-.24,0-.36Z"/>
    <path class="cls-1" d="M17.12,22.79c0,.11,0,.23,0,.34,0,.14-.04.19-.18.19-.14,0-.18-.06-.18-.2,0-.24,0-.47,0-.71,0-.14.06-.17.19-.17.13,0,.18.04.18.17,0,.12,0,.24,0,.36Z"/>
    <path class="cls-1" d="M4.37,30.95c0,.09,0,.11,0,.23h31.25c0-.07,0-.12,0-.24-3.27,0-10.64,0-13.91,0-4.39,0-12.95,0-17.34,0Z"/>
    <path class="cls-1" d="M35.63,28.26l-1.85-.03h-.96v-3.36c.27-.09.58-.21.58-.95,0-.86-.61-.85-.61-.85.42,0,.43-.83-.36-.83-.36,0-.73,0-1.09,0-.13,0-.19-.04-.2-.18-.26-2.33-.82-4.6-1.5-6.85-.04-.14-.11-.19-.26-.19-.51,0-1.01,0-1.52,0-.15,0-.21.06-.25.19-.57,1.89-1.05,3.81-1.36,5.76-.06.37-.1.75-.15,1.08-.1-.06-.21-.16-.34-.2-.32-.09-.42-.28-.38-.6.02-.15,0-.31,0-.5h-1.82c-.05-.46-.08-.89-.15-1.32-.24-1.41-.44-2.84-.75-4.23-.35-1.54-.8-3.05-1.21-4.57-.04-.16-.11-.22-.28-.21-.68,0-1.36,0-2.04,0-.15,0-.21.05-.25.19-.78,2.54-1.42,5.11-1.83,7.74-.12.79-.2,1.58-.3,2.4h-1.27c-.57,0-.58,0-.56.57,0,.23-.07.35-.27.45-.21.11-.39.25-.59.38-.04-.28-.08-.61-.13-.95-.27-1.9-.73-3.75-1.27-5.59-.06-.2-.08-.46-.22-.56-.14-.1-.4-.04-.6-.04-.36,0-.73,0-1.09,0-.13,0-.19.04-.23.17-.68,2.24-1.24,4.5-1.5,6.83-.02.17-.07.23-.25.23-.37-.01-.74,0-1.12,0-.13.04-.43.2-.33.76,0,0-.64.19-.64.86,0,.67.08,1.02.6,1.02v.75h0v2.58h-2.93c0,.18,0,.22,0,.46,9.38,0,21.84.03,31.25.03,0-.2,0-.25,0-.46ZM26.77,20.4c.28-1.6.68-3.17,1.14-4.72.05-.17.12-.23.29-.22.3.01.6,0,.9.01.07,0,.18.07.2.13.65,2.15,1.17,4.32,1.43,6.56,0,.02,0,.04-.01.08-.16,0-.33.01-.49,0-.06,0-.13-.08-.17-.13-.3-.43-.6-.86-.89-1.29-.08-.11-.15-.17-.3-.16-.28.02-.6-.07-.82.04-.22.12-.33.43-.49.66-.14.21-.3.4-.41.62-.14.29-.36.3-.65.24.09-.61.17-1.22.27-1.82ZM29.62,22.23h-2.14c.26-.38.49-.73.73-1.08h.67c.24.35.48.71.74,1.08ZM26.14,22.69c.06-.02.13-.01.19-.01,1.93,0,3.85,0,5.78,0,.03,0,.06,0,.08,0,.15,0,.17.17,0,.17-.78,0-1.57,0-2.35,0h-.62c-.96,0-1.93,0-2.89,0-.06,0-.13,0-.19,0-.03,0-.06-.05-.06-.07,0-.03.03-.08.06-.09ZM17.34,19.51c.36-2.87,1.03-5.67,1.86-8.43.04-.15.1-.21.26-.21.48,0,.96,0,1.44,0,.14,0,.2.05.24.18.7,2.33,1.3,4.69,1.67,7.1.12.8.21,1.61.3,2.42,0,.06,0,.12,0,.21-.32,0-.62,0-.93,0-.07,0-.14-.08-.19-.15-.38-.55-.77-1.1-1.14-1.66-.09-.14-.19-.19-.35-.18-.27.01-.54.01-.81,0-.14,0-.22.05-.3.16-.37.56-.75,1.11-1.12,1.68-.08.12-.17.17-.31.16-.23-.01-.47,0-.75,0,.04-.45.07-.86.13-1.27ZM21.57,20.76h-2.88c.24-.36.47-.7.69-1.04q.36-.54,1-.51c.06,0,.14.02.17.06.34.48.66.96,1.02,1.48ZM15.37,21.21h9.56c.06.32.05.33-.25.33-3.01,0-6.03,0-9.04,0h-.27v-.33ZM9.58,21.11c.28-1.82.72-3.61,1.24-5.37.06-.2.14-.3.36-.28.28.02.56.01.83,0,.13,0,.19.04.23.17.35,1.4.72,2.79,1.04,4.19.17.75.24,1.52.36,2.28,0,.04,0,.08,0,.12-.44.09-.49.07-.73-.28-.25-.37-.51-.74-.76-1.11-.08-.12-.16-.18-.31-.17-.27.02-.59-.07-.8.04-.21.11-.33.41-.48.64-.14.21-.3.4-.41.62-.15.31-.39.33-.7.26.05-.37.09-.75.15-1.12ZM12.59,22.24h-2.14c.26-.38.5-.74.74-1.09.07-.09.59-.07.66.03.24.34.47.69.73,1.07ZM7.83,22.69s.1,0,.15,0c1.96,0,3.91,0,5.87,0,.03,0,.06,0,.08,0,.06.03.12.06.17.1-.06.03-.12.09-.18.09-1.01,0-2.01,0-3.02,0-.97,0-1.94,0-2.91,0-.06,0-.12.01-.17,0-.03-.01-.07-.06-.07-.1,0-.02.05-.07.08-.07ZM7.09,24.21s0-.1,0-.15c.02-.16-.03-.39.06-.48.18-.17.4-.29.69-.29,2.01.01,4.03,0,6.04,0,.16,0,.28.02.27.22,0,.05.04.11.04.16.03.23.15.29.38.28.36-.02.36,0,.35.35,0,.04,0,.08-.02.16h-.25c-2.43,0-4.87,0-7.3,0-.2,0-.29-.06-.27-.26ZM10.83,28.12v-1.45c.13-.16.24-.29.37-.45.08-.04.21-.12.32-.19.1.06.23.14.31.19.13.14.22.24.31.35.03.04.07.09.07.14,0,.46,0,.93,0,1.41h-1.39ZM14.7,28.26c-.61-.01-1.23,0-1.84,0-.06,0-.12,0-.22-.01,0-.3,0-.59,0-.88,0-.25,0-.5,0-.75,0-.17-.06-.32-.23-.41-.05-.03-.06-.11-.1-.15-.1-.1-.21-.2-.31-.29-.05-.04-.11-.09-.16-.12-.11-.06-.26-.2-.32-.16-.29.15-.61.27-.79.58-.02.04-.03.11-.06.13-.27.13-.27.36-.27.6,0,.43,0,.86,0,1.29,0,.1,0,.19-.14.18-.81,0-1.63,0-2.44,0-.01,0-.02-.01-.05-.03,0-.07-.01-.14-.01-.22,0-.95,0-1.9,0-2.85,0-.19.05-.26.25-.26,2.23,0,4.47,0,6.71,0,.19,0,.24.06.24.24,0,.96,0,1.93,0,2.89,0,.17-.05.23-.23.23ZM16.07,28.1c0-.64,0-1.27,0-1.9,0-.05.04-.12.07-.13.23-.07.31-.24.3-.47.29.02.47-.09.54-.38.11.25.24.44.54.37.02.24.08.44.34.5.03,0,.05.08.05.12,0,.63,0,1.26,0,1.9h-1.85ZM18.67,28.25h-.31v-.24c0-.59,0-1.19,0-1.78,0-.24-.05-.45-.31-.56-.04-.02-.08-.09-.09-.15-.07-.21-.18-.37-.42-.4-.05,0-.1-.05-.13-.09-.28-.34-.53-.35-.8,0-.03.04-.08.09-.13.09-.26.02-.37.19-.44.41-.02.05-.04.12-.08.14-.27.11-.31.33-.31.58,0,.59,0,1.17,0,1.76v.26h-.27v-4.26h3.3v4.26ZM19.7,28.1c0-.39-.03-.77.02-1.15.02-.15.22-.28.34-.41.05-.05.14-.07.24-.13.16.14.33.3.51.46.02.02.02.07.02.1,0,.37,0,.74,0,1.13h-1.13ZM21.39,27.9c0,.06-.01.11-.02.17-.03,0-.05,0-.08,0,0-.07-.02-.14-.02-.21,0-.3,0-.6,0-.9,0-.19-.03-.36-.22-.48-.07-.04-.08-.18-.14-.23-.18-.14-.38-.26-.57-.39-.03-.02-.08-.02-.1,0-.22.16-.52.23-.65.5,0,.02-.01.05-.03.06-.37.24-.25.62-.26.95,0,.19,0,.37,0,.56,0,.05-.05.1-.07.15-.03-.05-.09-.1-.09-.15,0-.59,0-1.17,0-1.76,0-.59,0-1.19,0-1.78,0-.15.03-.22.2-.22.63,0,1.26,0,1.89,0,.15,0,.2.05.2.2,0,1.18,0,2.36,0,3.54ZM24.34,28.1h-1.86v-.51c0-.44,0-.87,0-1.31,0-.12.04-.19.16-.26.13-.08.2-.25.33-.43.21.04.36-.12.45-.42.1.29.23.48.53.4,0,.27.11.46.39.5v2.02ZM24.96,24.22v3.79c0,.06,0,.12,0,.17,0,.03-.05.07-.08.07-.03,0-.07-.04-.08-.07-.01-.05,0-.11,0-.17,0-.56,0-1.13,0-1.69,0-.27-.02-.53-.33-.66-.05-.02-.07-.12-.09-.18-.07-.19-.18-.32-.39-.35-.06,0-.12-.06-.16-.11-.25-.32-.53-.32-.78,0-.04.05-.1.11-.16.11-.23.03-.34.19-.41.39-.02.06-.05.14-.1.16-.23.1-.29.3-.29.53,0,.6,0,1.2,0,1.8,0,.08,0,.15,0,.25-.08,0-.15.01-.24.02,0-.09-.01-.17-.01-.24,0-1.26,0-2.53,0-3.79,0-.21.05-.27.26-.26.87.01,1.74,0,2.61,0h.26v.25ZM20.07,23.53h0c-1.75,0-3.5,0-5.25,0-.22,0-.27-.09-.27-.27,0-.24,0-.47-.01-.71,0-.15.06-.22.18-.31.32-.23.67-.3,1.06-.3,2.99.01,5.99,0,8.98.02.28,0,.56.18.83.29.03.01.05.1.05.15,0,.29,0,.57,0,.86,0,.18-.07.26-.27.26-1.77,0-3.53,0-5.29,0ZM29.4,28.13c-.45,0-.88,0-1.3,0-.04,0-.1-.08-.1-.12,0-.44,0-.87,0-1.31,0-.04.05-.09.08-.13.09-.1.18-.2.24-.31.13-.07.26-.15.37-.21.09.05.23.09.31.17.15.14.35.3.37.47.05.47.02.95.02,1.45ZM32.35,28.23h-2.5c0-.08-.02-.16-.02-.24,0-.42,0-.84,0-1.26,0-.22-.02-.43-.26-.54-.04-.02-.05-.09-.08-.14-.17-.31-.5-.4-.77-.57-.04-.03-.15.03-.21.07-.14.08-.32.15-.41.27-.2.3-.55.51-.53.94.02.41,0,.83,0,1.24v.24h-2.17v-3.35h6.95v3.34ZM25.56,24.44s-.1,0-.16-.02v-.46c.54.11.55-.33.72-.68h.19c1.97,0,3.94,0,5.91,0,.7,0,.7.11.7.35,0,.2,0,.4,0,.6,0,.14-.06.2-.21.2-2.39,0-4.77,0-7.16,0Z"/>
  </g>
</svg>