<svg id="Layer_1" data-name="Layer 1" xmlns="http://www.w3.org/2000/svg" viewBox="0 0 40 40" height="100px" width="100px" transform="rotate(0) scale(1, 1)">
  <defs>
    <style>.cls-1 { fill: #624430; }.cls-2 { fill: #fafafa; }</style>
  </defs>
  <circle class="cls-2" cx="20" cy="20" r="19.96"/>
  <g>
    <path class="cls-1" d="M23.28,11.57c-.15,0-.28,0-.41,0-.07,0-.09.03-.1.09,0,.1-.02.21-.04.31-.02.12-.1.2-.2.19-.1,0-.15-.09-.15-.21,0-.09.02-.17.03-.26,0-.07,0-.1-.08-.09-.68.03-1.36.07-2.04.08-.41,0-.83-.02-1.24-.04-.33-.01-.67-.03-1-.04-.04,0-.08,0-.13,0,.01.13.03.24.03.36,0,.12-.06.19-.18.19-.07,0-.12-.03-.13-.1-.03-.12-.05-.24-.07-.36,0-.09-.05-.12-.14-.12-.11,0-.22,0-.33,0-.06,0-.07.02-.07.08.06.44.11.87.16,1.31,0,.05,0,.1,0,.15,0,.11-.05.17-.16.18-.1,0-.16-.03-.18-.15-.05-.37-.1-.75-.14-1.12-.02-.13-.03-.26-.06-.4,0-.03-.05-.06-.07-.08-.02.03-.05.06-.05.09-.02.3-.03.61-.04.91-.01.22-.04.44-.04.66-.01.33,0,.65-.02.98-.02.49-.03.98-.07,1.47-.01.13,0,.25,0,.37,0,.49-.03.98-.05,1.47-.03.86-.06,1.71-.09,2.57,0,.04,0,.08,0,.15.15,0,.3,0,.45,0,.1,0,.14.06.14.15,0,.12-.03.17-.14.18-.12.01-.25.02-.37.01-.08,0-.11.03-.11.11,0,.24-.01.49-.03.73,0,.09.03.12.11.12.21,0,.42,0,.63,0,.12,0,.18.05.19.17,0,.12-.06.19-.19.19-.22,0-.44,0-.66,0-.06,0-.09,0-.1.08,0,.27-.02.53-.03.8,0,.09.06.09.11.09.29,0,.57,0,.86,0,.04,0,.08,0,.12,0,.11.03.16.09.14.17-.02.13-.06.17-.19.17-.31,0-.61,0-.92,0-.14,0-.14,0-.15.14,0,.22-.02.45-.03.67,0,.15,0,.16.15.16.4,0,.81,0,1.21.01.15,0,.19.05.19.18,0,.1-.08.16-.2.17-.42,0-.83,0-1.25,0-.1,0-.13.04-.13.13,0,.24-.01.48-.02.72,0,.08.03.11.11.11.47,0,.94,0,1.41,0,.07,0,.14,0,.21.01.1.02.15.09.13.19-.01.1-.06.15-.17.15-.53,0-1.06,0-1.59,0-.09,0-.12.03-.12.12,0,.24-.01.48-.02.72,0,.04,0,.07,0,.12.05,0,.09,0,.13,0,.59,0,1.18,0,1.77,0,.06,0,.12,0,.18.03.08.03.11.09.1.18,0,.09-.06.14-.14.15-.04,0-.07,0-.11,0-.61,0-1.21,0-1.82,0-.09,0-.12.03-.12.12,0,.23-.02.47-.03.7,0,.13,0,.14.14.14.68,0,1.36,0,2.04,0,.06,0,.11,0,.17,0,.09,0,.14.06.15.15,0,.09-.03.17-.12.19-.05.01-.11.02-.16.02-.7,0-1.41,0-2.11,0-.1,0-.13.04-.13.13,0,.24,0,.47-.02.71,0,.08.01.11.1.11.8,0,1.59,0,2.39,0,.05,0,.1,0,.15,0,.11.01.16.07.16.18,0,.1-.05.17-.15.17-.14,0-.29,0-.43,0-.68,0-1.37,0-2.05,0-.03,0-.06,0-.09,0-.08,0-.1.03-.1.11,0,.14,0,.28-.02.42,0,.08.03.11.11.11,1.18,0,2.35,0,3.53,0,.11,0,.23,0,.34,0,.08,0,.11-.02.1-.11-.04-.28-.08-.56-.11-.84-.16-1.25-.31-2.51-.47-3.76-.07-.58-.15-1.15-.23-1.72-.01-.11-.04-.23.07-.32-.18-.1-.13-.27-.15-.42-.13-.92-.24-1.84-.36-2.76-.13-.98-.26-1.96-.38-2.93-.14-1.07-.27-2.15-.41-3.22-.08-.6-.15-1.19-.23-1.79-.02-.13.01-.19.1-.22.11-.04.21,0,.23.13.04.28.08.57.12.85.04.26.07.52.1.78,0,.08.04.09.11.07.57-.17,1.14-.34,1.72-.5.07-.02.15-.02.21,0,.52.15,1.04.3,1.55.45.04.01.08.02.13.04.14.04.14.03.16-.11.05-.39.1-.79.15-1.18.02-.13.03-.27.05-.4.03-.14.16-.19.27-.12.07.04.08.1.07.17-.02.22-.05.43-.07.65-.08.61-.16,1.23-.23,1.84-.1.81-.21,1.61-.31,2.42-.08.65-.16,1.3-.25,1.94-.1.8-.21,1.61-.31,2.41-.07.56-.14,1.11-.21,1.67-.01.1-.11.2-.09.28.03.11.03.2.02.3-.1.76-.2,1.52-.3,2.28-.09.7-.18,1.4-.27,2.1,0,.07-.01.15-.1.18-.16.06-.28-.03-.26-.21.03-.27.07-.55.1-.82.08-.66.17-1.32.25-1.97.07-.57.15-1.14.22-1.7,0-.02,0-.05.01-.06.12-.11.05-.24.05-.37,0-.14.04-.27.04-.41,0-.03-.04-.09-.08-.1-.21-.06-.41-.13-.63-.17-.08-.02-.17,0-.26.02-.19.05-.37.1-.56.15-.06.02-.08.05-.07.11.02.12.04.23.04.35,0,.09-.01.18-.02.3.09.04.09.15.1.26.1.8.21,1.6.31,2.4.08.6.15,1.2.23,1.8.04.3.08.6.12.9,0,.04.02.08.03.12.03,0,.04,0,.06-.01.18-.08.3,0,.28.2-.02.22-.05.44-.08.65-.01.1-.02.2-.04.3-.01.12,0,.13.11.13.33,0,.66,0,.99,0,.94,0,1.89,0,2.83,0,.13,0,.13,0,.13-.14,0-.13,0-.26,0-.39,0-.08-.03-.11-.11-.11-.21,0-.41,0-.62,0-.57,0-1.14,0-1.71,0-.08,0-.17,0-.25,0-.09,0-.14-.06-.14-.15,0-.09.03-.16.12-.18.05-.01.1-.01.15-.01.79,0,1.59,0,2.38,0,.16,0,.16,0,.16-.16,0-.23-.02-.45-.02-.68,0-.09-.03-.12-.12-.12-.7,0-1.41,0-2.11,0-.05,0-.11,0-.16-.02-.09-.03-.14-.08-.12-.19.01-.1.07-.15.17-.15.12,0,.24,0,.36,0,.62,0,1.24,0,1.86,0,.08,0,.11-.02.1-.1-.01-.26-.02-.53-.03-.79,0-.07-.04-.08-.1-.08-.59,0-1.17,0-1.76,0-.07,0-.15,0-.22-.02-.09-.02-.12-.09-.12-.17,0-.09.03-.14.13-.15.09,0,.18-.02.27-.02.54,0,1.09,0,1.63,0,.05,0,.09,0,.15,0,0-.08,0-.15,0-.22,0-.2-.01-.39-.02-.59,0-.14,0-.15-.15-.15-.49,0-.98,0-1.47,0-.04,0-.08,0-.12,0-.08,0-.12-.05-.14-.12-.02-.08,0-.15.06-.18.07-.03.14-.05.22-.05.49,0,.99,0,1.48,0,.07,0,.1-.02.1-.1-.01-.24-.02-.47-.03-.71,0-.14,0-.15-.15-.15-.36,0-.73,0-1.09,0-.05,0-.1,0-.15,0-.13-.01-.17-.06-.17-.18,0-.11.04-.15.17-.16.11,0,.23,0,.34,0,.32,0,.65,0,.97,0,.02,0,.04,0,.06,0,0-.18,0-.34,0-.51,0-.09,0-.19-.01-.28,0-.16,0-.16-.17-.16-.3,0-.59,0-.89,0-.12,0-.2-.05-.2-.15,0-.13.06-.19.2-.2.31,0,.61,0,.92,0,.09,0,.12-.03.12-.12-.01-.25-.02-.5-.02-.75,0-.07-.03-.09-.1-.09-.2,0-.39,0-.59,0-.04,0-.09,0-.13-.01-.1-.02-.15-.09-.14-.18.01-.1.06-.16.17-.16.22,0,.43,0,.65,0,.09,0,.12-.03.11-.12,0-.07,0-.14,0-.21,0-.09.04-.14.13-.15.09-.01.17-.01.21.09.01.04.02.08.03.12.02.41.03.83.04,1.24,0,.09.02.13.12.1.04,0,.08,0,.12,0,.44,0,.88,0,1.32,0,.22,0,.26.04.26.26,0,.42,0,.83,0,1.25,0,.09.02.15.11.18.07.02.09.07.08.13-.01.06-.04.14-.08.15-.1.04-.11.1-.11.19,0,.81,0,1.62,0,2.43,0,.06,0,.13-.01.2.03,0,.05,0,.08,0,1.12,0,2.25,0,3.37,0,.3,0,.33.02.33.33,0,.71,0,1.43,0,2.14,0,.15,0,.29,0,.44,0,.09.03.13.13.13.09,0,.18,0,.27.02.09.02.12.09.11.18,0,.08-.04.14-.13.15-.04,0-.09.01-.13.01-.98,0-1.95,0-2.93,0-1.28,0-2.55,0-3.83,0-.62,0-1.25,0-1.87,0-1.55,0-3.11,0-4.66,0-.96,0-1.93,0-2.89,0-1.31,0-2.62,0-3.93,0-.24,0-.48,0-.72,0-.11,0-.15-.05-.16-.15-.01-.1.02-.17.11-.2.04-.01.08-.02.12-.02.17,0,.35,0,.52,0,.07,0,.1-.02.1-.09,0-.17,0-.34,0-.51,0-.25,0-.5,0-.75,0-.09-.04-.12-.13-.12-.12,0-.2-.07-.2-.18,0-.1.09-.17.21-.16.11,0,.12-.01.12-.14,0-.58,0-1.15,0-1.73,0-.1,0-.21.01-.31.01-.12.04-.16.17-.16.22,0,.44,0,.66,0,.08,0,.11-.02.11-.11,0-.22,0-.44,0-.66,0-.21.05-.25.25-.25.52,0,1.04,0,1.56,0,.18,0,.23.05.24.23,0,.22,0,.45,0,.67,0,.09.02.12.11.12.19,0,.37,0,.56,0,.07,0,.11-.02.12-.1,0-.07.05-.11.12-.12.06,0,.07-.03.07-.09,0-.21,0-.42,0-.63,0-.07-.04-.09-.09-.1-.1-.02-.11-.1-.11-.18,0-.09.04-.14.14-.15.02,0,.06-.04.06-.06,0-.23,0-.45,0-.68,0-.02-.04-.05-.06-.06-.08-.03-.12-.09-.13-.17-.01-.07.01-.14.09-.15.09-.02.11-.08.11-.16,0-.39,0-.79,0-1.18,0-.31.01-.33.32-.33.38,0,.76,0,1.14,0,.09,0,.12-.03.12-.12.03-.87.06-1.75.09-2.62.04-1.11.08-2.22.12-3.33,0-.05.04-.1.06-.15,0-.03.01-.07,0-.11,0-.05-.04-.1-.04-.16.02-.74.03-1.49.08-2.23.02-.33-.05-.64-.08-.96-.05-.48-.11-.96-.17-1.44-.01-.1-.04-.16-.15-.17-.11-.01-.17-.09-.16-.19,0-.09.06-.14.18-.16.38-.04.76-.08,1.14-.12.54-.05,1.09-.1,1.63-.15.31-.03.62-.06.93-.08.08,0,.1-.04.11-.12.06-.66.12-1.32.19-1.98.06-.6.12-1.2.17-1.8.02-.22.04-.44.07-.67.01-.14.07-.19.18-.19.11,0,.16.07.18.2.06.68.13,1.36.19,2.04.06.67.13,1.34.19,2.01.01.13.03.27.04.4,0,.07.03.1.09.1.18.02.36.04.54.06.75.07,1.49.14,2.24.21.27.03.54.05.81.07.06,0,.11.01.17.02.11.02.14.07.14.17,0,.11-.06.17-.17.17-.1,0-.12.05-.13.13-.08.66-.15,1.33-.25,1.98-.04.29.02.56.02.84,0,.63.04,1.27.06,1.9.04,1.04.08,2.09.11,3.13.02.62.04,1.25.07,1.87,0,.04,0,.09,0,.13-.02.1-.08.14-.2.14-.1,0-.12-.07-.14-.14,0-.06-.02-.11-.02-.17,0-.06-.02-.08-.08-.08-.12,0-.25,0-.37-.01-.11,0-.18-.08-.17-.18,0-.1.07-.16.19-.17.11,0,.21,0,.32,0,.08,0,.1-.02.1-.1-.02-.43-.03-.85-.05-1.28-.02-.5-.04-1.01-.06-1.51-.05-1.28-.09-2.56-.14-3.84,0-.2,0-.4,0-.6-.01-.27-.03-.54-.05-.81,0-.14,0-.29-.02-.43,0-.03-.04-.07-.06-.1-.02.03-.06.06-.07.1-.06.45-.11.89-.17,1.34,0,.06-.02.11-.03.17-.03.12-.08.14-.2.13-.08,0-.14-.05-.13-.13.01-.18.03-.36.05-.55.03-.3.07-.6.11-.9,0-.04,0-.07,0-.12ZM12.41,26.62h0c-.57,0-1.13,0-1.7,0-.13,0-.14.01-.14.14,0,.57,0,1.14,0,1.71,0,.09.02.12.12.12.94,0,1.87,0,2.81,0,.12,0,.24,0,.36,0,.08,0,.16.09.16.17,0,.1-.06.17-.15.17-.05,0-.1,0-.15,0-1,0-2,0-3,0-.14,0-.14,0-.14.14,0,.38,0,.77,0,1.15,0,.22-.02.19.19.18.03,0,.05,0,.08,0,1.09,0,2.18,0,3.27,0,.09,0,.11-.03.11-.11,0-.13,0-.26,0-.39,0-.06-.02-.1-.08-.11-.08-.02-.12-.07-.12-.16,0-.09.04-.16.13-.18.06-.01.07-.05.07-.1,0-.2,0-.4,0-.6,0-.06-.02-.09-.08-.11-.09-.02-.12-.09-.13-.17,0-.08.04-.14.13-.16.06-.01.08-.05.07-.11,0-.2,0-.39,0-.59,0-.06-.01-.09-.08-.12-.05-.02-.11-.09-.12-.15-.01-.07.02-.16.12-.17.06,0,.08-.05.08-.1,0-.12,0-.25,0-.37,0-.08-.02-.1-.1-.1-.57,0-1.14,0-1.71,0ZM26.7,30.4s0-.04,0-.06c0-.82,0-1.63,0-2.45,0-.15.01-.15-.16-.15-.3,0-.59,0-.89,0-.08,0-.11.03-.11.11,0,.42,0,.83,0,1.25,0,.07,0,.14-.02.2-.01.04-.05.09-.09.1-.15.05-.25-.02-.25-.21,0-.51,0-1.01,0-1.52,0-.04,0-.08,0-.12.01-.1.06-.16.17-.16.16,0,.33-.01.49,0,.1,0,.13-.02.13-.12,0-.86,0-1.72,0-2.58,0-.09-.05-.09-.11-.09-.39,0-.79,0-1.18,0-.08,0-.1.03-.1.1.02.37.03.74.04,1.11.03.74.05,1.48.08,2.22.03.77.05,1.54.08,2.31,0,.06.03.08.08.08.07,0,.14,0,.21,0,.08,0,.1-.03.1-.11,0-.18,0-.36,0-.54,0-.13.06-.19.17-.19.13,0,.19.06.19.2,0,.18,0,.36,0,.54,0,.07.02.1.1.1.32,0,.64,0,.96,0,.03,0,.05,0,.08,0ZM18.45,15.85s.08-.02.12-.03c.47-.14.94-.28,1.42-.42.09-.02.19-.03.28-.01.22.05.43.12.64.18.28.08.56.16.83.24.06.02.13.05.14-.06.04-.37.09-.75.14-1.12.01-.08-.01-.11-.09-.13-.53-.15-1.06-.3-1.58-.46-.14-.04-.26-.04-.4,0-.53.16-1.05.31-1.58.46-.07.02-.08.05-.08.12.02.13.03.25.05.38.03.28.07.55.11.85ZM18.66,17.52s.08-.01.11-.02c.39-.11.79-.23,1.18-.34.14-.04.28-.04.42,0,.39.12.79.23,1.19.35.07.02.09.01.1-.07.05-.39.1-.77.15-1.16,0-.05-.01-.08-.06-.09-.46-.13-.91-.26-1.37-.4-.15-.05-.3-.04-.45,0-.4.12-.8.24-1.2.35-.23.06-.24.06-.21.3.04.35.09.71.14,1.08ZM21.43,19.22s.02-.05.02-.06c.05-.39.09-.79.14-1.18,0-.06-.02-.09-.08-.1-.41-.12-.82-.24-1.23-.35-.08-.02-.19-.02-.27,0-.39.1-.78.22-1.16.33-.14.04-.14.04-.12.18.05.36.09.71.14,1.07,0,.08.03.1.12.08.33-.1.66-.19.99-.28.13-.04.26-.05.39,0,.13.05.27.08.4.12.22.06.44.13.67.19ZM28.24,27.75s-.03-.01-.04-.01c-.35,0-.71,0-1.06,0-.07,0-.08.04-.08.1,0,.82,0,1.65,0,2.47,0,.08.03.11.11.11.31,0,.63,0,.94,0,.13,0,.13,0,.13-.13,0-.81,0-1.61,0-2.42,0-.04,0-.08,0-.12ZM21.21,20.9c0-.05.02-.09.02-.13.04-.34.08-.68.13-1.02.02-.17.03-.17-.14-.21-.31-.09-.63-.18-.94-.27-.1-.03-.19-.03-.28,0-.33.1-.67.2-1.01.29-.06.02-.07.05-.06.1.01.12.03.24.04.36.03.26.07.53.1.79,0,.08.04.1.11.08.05-.01.1-.02.15-.04.21-.06.43-.13.64-.19.12-.04.23-.04.35,0,.13.05.27.08.4.12.16.04.31.09.48.14ZM28.6,29.06h0c0,.41,0,.81,0,1.22,0,.12.02.14.14.14.31,0,.61,0,.92,0,.06,0,.09-.02.09-.08,0-.03,0-.07,0-.1,0-.8,0-1.59,0-2.39,0-.08-.02-.11-.11-.11-.32,0-.63,0-.95,0-.09,0-.1.03-.1.11,0,.4,0,.81,0,1.21ZM21.16,21.33c.02-.05-.03-.08-.09-.1-.27-.08-.54-.16-.81-.23-.06-.02-.13-.02-.2,0-.28.08-.56.16-.84.24-.06.02-.08.05-.07.12.05.37.09.74.13,1.11,0,.09.05.11.13.09.2-.06.4-.13.6-.18.08-.02.17-.02.25,0,.21.05.42.12.63.18.08.02.1,0,.11-.07.05-.38.1-.75.15-1.16ZM15.7,24.89s0-.07.01-.12c.01-.39.02-.78.03-1.17.01-.35.02-.69.04-1.04,0-.08-.03-.11-.11-.11-.33,0-.65,0-.98,0-.09,0-.12.03-.12.11,0,.35,0,.7,0,1.05,0,.1.03.12.12.12.25,0,.5,0,.75,0,.06,0,.12,0,.17.02.04.01.08.05.09.09.05.13-.03.24-.19.24-.28,0-.55,0-.83,0-.07,0-.1.02-.1.1,0,.18,0,.35,0,.53,0,.16,0,.16.15.16.32,0,.64,0,.97.01ZM25.26,22.94c-.2,0-.41,0-.61,0-.08,0-.11.02-.1.1.02.37.03.73.04,1.1,0,.07.03.1.1.1.4,0,.81,0,1.21,0,.07,0,.1-.02.1-.1,0-.35,0-.7,0-1.05,0-.15,0-.15-.15-.15-.19,0-.39,0-.58,0ZM20.17,11.33s0,0,0,0c.07,0,.15,0,.22,0,.94-.04,1.88-.08,2.82-.12.1,0,.15-.03.15-.13,0-.02,0-.04,0-.06.01-.09-.01-.12-.11-.11-.34.03-.67.04-1.01.06-.43.03-.85.05-1.28.08-.33.02-.67.04-1,.03-.27,0-.54-.03-.82-.05-.44-.03-.87-.05-1.31-.08-.27-.02-.53-.03-.8-.04-.03,0-.08,0-.09.03-.06.1.04.26.15.26.26.01.53.02.79.03.76.03,1.52.06,2.28.09ZM12.21,25.6h0c-.19,0-.39,0-.58,0-.07,0-.1.03-.09.1,0,.15,0,.29,0,.44,0,.09.03.12.12.12.37,0,.74,0,1.11,0,.09,0,.11-.03.11-.11,0-.15,0-.31,0-.46,0-.07-.02-.09-.09-.09-.19,0-.38,0-.57,0ZM15.69,25.22c-.11,0-.2.02-.29.02-.24,0-.48,0-.72,0-.04,0-.1-.01-.1.06,0,.22,0,.44,0,.66,0,.02.04.06.06.06.32,0,.63.01.95.01.02,0,.06-.03.06-.05.01-.25.02-.51.03-.77ZM15.12,26.38s0,0,0,0c-.15,0-.29,0-.44,0-.06,0-.1.01-.1.09,0,.21,0,.41,0,.62,0,.06.02.08.08.08.3,0,.59,0,.89,0,.05,0,.07-.01.07-.07,0-.22.01-.43.02-.65,0-.06-.02-.09-.09-.09-.15,0-.29,0-.44,0ZM15.09,28.32h0c.14,0,.27,0,.41,0,.06,0,.08-.02.08-.08,0-.2,0-.4.02-.6,0-.08-.02-.11-.1-.1-.28,0-.55,0-.83,0-.07,0-.09.02-.09.09,0,.2,0,.4,0,.6,0,.07.02.1.09.09.14,0,.28,0,.42,0ZM15.07,28.68s0,0,0,0c-.14,0-.27,0-.41,0-.05,0-.08.01-.08.07,0,.21,0,.42,0,.63,0,.06.02.09.08.09.27,0,.54,0,.81,0,.02,0,.07-.04.07-.07.01-.2.02-.41.03-.61,0-.08-.03-.11-.1-.1-.13,0-.26,0-.39,0ZM22.09,10.6s-.06-.01-.09-.02c-.39-.04-.78-.08-1.16-.11-.29-.02-.57-.05-.86-.04-.34.01-.67.06-1.01.09-.13.01-.25.02-.38.03-.12.01-.24.03-.35.04,1.27.17,2.56.16,3.84,0ZM20.17,7.56s-.02,0-.03,0c0,.04-.01.09-.02.13-.05.51-.09,1.02-.14,1.53-.02.24-.05.48-.07.73,0,.12,0,.12.12.11.05,0,.1,0,.15,0,.23,0,.22,0,.2-.22-.05-.53-.1-1.07-.16-1.6-.02-.22-.04-.45-.06-.67ZM15.53,29.82c-.31,0-.59,0-.87,0-.05,0-.08.02-.08.08,0,.14,0,.28,0,.42,0,.06.02.1.08.1.25,0,.5,0,.75,0,.03,0,.08-.04.08-.07.02-.17.02-.34.03-.52ZM23.89,11.19c.19-.02.19-.02.19-.2,0-.04.03-.1-.05-.12-.07-.02-.29.02-.3.06-.01.08-.02.16,0,.23,0,.02.11.02.16.03ZM16.6,11.18c.02-.27,0-.3-.24-.32-.03,0-.06,0-.08,0-.02,0-.05.03-.05.04,0,.08.01.16.03.24,0,.01.03.03.05.04.1,0,.2,0,.29,0Z"/>
    <path class="cls-1" d="M15.61,30.84c1.06,0,2.12,0,3.18,0,.73,0,1.47,0,2.2,0,.12,0,.17.04.19.16.01.09-.03.15-.14.18-.04,0-.08.01-.12.01-3.53,0-7.06,0-10.59,0-.04,0-.09,0-.13-.01-.11-.03-.16-.1-.15-.19.01-.1.08-.14.19-.14,1.22,0,2.44,0,3.66,0,.57,0,1.14,0,1.71,0h0Z"/>
    <path class="cls-1" d="M26.42,30.83c1.11,0,2.21,0,3.32,0,.14,0,.22.06.22.17,0,.11-.08.18-.22.18-2.21,0-4.41,0-6.62,0-.09,0-.18,0-.22-.1-.05-.14.03-.25.19-.25.29,0,.59,0,.88,0,.82,0,1.63,0,2.45,0,0,0,0,0,0,0Z"/>
    <path class="cls-1" d="M22.12,30.83c.14,0,.29,0,.43,0,.11,0,.17.06.17.16,0,.11-.05.18-.16.19-.06,0-.13,0-.19,0-.21,0-.42,0-.63,0-.16,0-.23-.11-.18-.26.03-.07.08-.09.15-.09.14,0,.27,0,.41,0,0,0,0,0,0,0Z"/>
  </g>
</svg>