<svg width="36px" height="36px" viewBox="0 0 36 36" fill="none" xmlns="http://www.w3.org/2000/svg" transform="rotate(0) scale(1, 1)">
<g clip-path="url(#clip0_1_23)">
<path d="M34 26.7C33.85 26.45 33.53 26.37 33.28 26.52C33.03 26.67 32.95 26.99 33.1 27.24C33.64 28.14 33.93 29.18 33.93 30.24V34.94H16.84V28.34C17.01 28.4 17.19 28.43 17.37 28.43C17.94 28.43 18.46 28.12 18.74 27.63C19.17 26.87 18.91 25.9 18.15 25.47L17.24 24.95C17.77 24.7 18.34 24.54 18.92 24.46C19.22 25.59 19.87 27.44 21.08 27.87C21.32 27.96 21.56 27.99 21.8 27.99C22.68 27.99 23.46 27.47 23.9 27.09C24.34 27.46 25.12 27.99 26 27.99C26.23 27.99 26.47 27.95 26.72 27.87C27.93 27.45 28.59 25.59 28.88 24.46C29.86 24.59 30.78 24.97 31.58 25.56C31.67 25.63 31.79 25.67 31.9 25.67C32.06 25.67 32.22 25.6 32.32 25.46C32.49 25.23 32.45 24.9 32.21 24.72C31.16 23.93 29.92 23.47 28.61 23.37C28.57 23.33 28.53 23.3 28.48 23.27L26.53 21.95V21.29C28.78 20.41 30.49 18.45 31.03 16.06C31.29 16.16 31.56 16.22 31.84 16.22C33.39 16.22 34.2 14.46 34.2 12.72C34.2 11.17 33.59 10.07 32.58 9.72001C32.84 9.00001 32.98 8.04 32.74 6.73C33.26 5.67 33.33 4.73 32.97 3.91C32.58 3.03 31.77 2.55 31.24 2.32C31.3 1.91 31.26 1.31 30.83 0.680005C30.63 0.380005 30.02 -0.519995 24.6 0.370005C24.31 0.420005 24.12 0.690005 24.17 0.980005C24.22 1.27 24.49 1.46 24.78 1.41C28.54 0.790004 29.8 1.1 29.97 1.27C30.37 1.86 30.17 2.35 30.15 2.4C30.07 2.54 30.07 2.7 30.13 2.85C30.19 3 30.33 3.1 30.49 3.15C30.5 3.15 31.63 3.46 32.01 4.33C32.25 4.88 32.16 5.58 31.72 6.4C31.66 6.51 31.65 6.63 31.67 6.75C31.99 8.27 31.72 9.19001 31.36 9.85001C31.36 9.85001 31.36 9.85 31.36 9.86C31.22 10.11 31.06 10.33 30.92 10.52C30.77 10.73 30.64 10.91 30.55 11.1C30.44 11.33 30.36 11.68 30.3 12.02C30 11.76 29.77 11.52 29.7 11.39C29.85 9.92001 29.94 7.41 28.95 6.54C28.62 6.25 28.2 6.15 27.74 6.25C27.31 6.35 26.94 6.44 26.62 6.52C25.56 6.78 24.92 6.94 23.84 6.94C22.76 6.94 22.12 6.78 21.06 6.52C20.73 6.44 20.36 6.35 19.94 6.25C19.48 6.14 19.06 6.25 18.73 6.54C17.75 7.41 17.84 9.93 17.99 11.4C17.93 11.53 17.71 11.77 17.44 12.04C17.35 11.7 17.24 11.33 17.14 11.11C17.11 11.05 17.09 11 17.06 10.94C16.87 10.54 16.69 10.17 16.63 9.26C16.63 9.24 16.63 9.21 16.63 9.19C16.63 9.18 16.35 7.72 16.68 6.15C17.1 4.13 18.29 2.86 20.21 2.38C20.95 2.19 21.68 2.02 22.39 1.87C22.67 1.81 22.86 1.53 22.79 1.24C22.73 0.960005 22.45 0.770005 22.16 0.840005C21.43 1 20.69 1.17 19.94 1.36C17.62 1.95 16.13 3.54 15.63 5.96C15.29 7.61 15.53 9.11 15.57 9.37C15.57 9.46 15.58 9.54 15.59 9.62C14.36 9.81 13.59 10.98 13.59 12.72C13.59 14.46 14.4 16.22 15.95 16.22C16.23 16.22 16.5 16.17 16.75 16.06C17.04 17.41 17.72 18.65 18.72 19.65C19.45 20.38 20.32 20.94 21.26 21.3V21.95L19.31 23.27C19.31 23.27 19.22 23.33 19.18 23.37C18.11 23.45 17.07 23.78 16.15 24.33L10.75 21.25C10.27 20.97 9.66 20.97 9.18 21.25L8.91 21.4V21.1C9.31 21.05 9.61 20.71 9.61 20.3V18.75C9.61 18.3 9.25 17.94 8.8 17.94H3.76C3.31 17.94 2.95 18.3 2.95 18.75V20.3C2.95 20.71 3.26 21.05 3.65 21.1V24.41L1.81 25.46C1.05 25.89 0.790002 26.86 1.22 27.62C1.43 27.99 1.77 28.25 2.18 28.36C2.32 28.4 2.46 28.42 2.6 28.42C2.78 28.42 2.96 28.39 3.12 28.33V30.56C3.12 30.85 3.36 31.09 3.65 31.09C3.94 31.09 4.18 30.85 4.18 30.56V27.76L9.98 24.45L15.78 27.76V34.93H13.54V28.71C13.54 28.26 13.18 27.9 12.73 27.9H7.25C6.8 27.9 6.44 28.26 6.44 28.71V34.93H4.18V33.4C4.18 33.11 3.94 32.87 3.65 32.87C3.36 32.87 3.12 33.11 3.12 33.4V35.46C3.12 35.75 3.36 35.99 3.65 35.99H34.45C34.74 35.99 34.98 35.75 34.98 35.46V30.23C34.98 28.98 34.64 27.75 34 26.69V26.7ZM26.38 26.89C25.8 27.09 25.18 26.75 24.76 26.44C25.97 25.46 26.37 24.12 26.49 23.2L27.88 24.14C27.5 25.62 26.91 26.69 26.37 26.88L26.38 26.89ZM33.16 12.72C33.16 13.92 32.67 15.16 31.85 15.16C31.59 15.16 31.37 15.06 31.2 14.95C31.21 14.79 31.22 14.63 31.22 14.46V13.06C31.27 12.58 31.4 11.81 31.52 11.56C31.57 11.46 31.67 11.32 31.79 11.15C31.89 11.01 32.01 10.85 32.12 10.67C32.88 10.85 33.16 11.81 33.16 12.71V12.72ZM15.96 15.17C15.14 15.17 14.65 13.93 14.65 12.73C14.65 11.79 14.95 10.78 15.79 10.67C15.88 10.97 15.99 11.21 16.1 11.42C16.12 11.47 16.15 11.52 16.17 11.57C16.3 11.85 16.49 12.63 16.59 13.09V14.5C16.59 14.66 16.59 14.81 16.6 14.96C16.43 15.07 16.21 15.17 15.95 15.17H15.96ZM17.65 14.5V13.29C19.12 12.07 19.06 11.55 19.05 11.38C18.84 9.4 19 7.74 19.44 7.35C19.49 7.31 19.55 7.26 19.71 7.3C20.13 7.4 20.49 7.49 20.81 7.57C21.87 7.83 22.64 8.03 23.85 8.03C25.06 8.03 25.82 7.84 26.89 7.57C27.21 7.49 27.58 7.4 27.99 7.3C28.15 7.26 28.22 7.3 28.26 7.35C28.7 7.74 28.86 9.39 28.65 11.38C28.63 11.56 28.58 12.08 30.16 13.3V14.47C30.16 17.93 27.35 20.74 23.89 20.74C22.22 20.74 20.66 20.09 19.48 18.91C18.3 17.73 17.65 16.16 17.65 14.5ZM23.89 21.79C24.44 21.79 24.97 21.73 25.48 21.61V22.6C25.45 23.27 25.22 24.81 23.9 25.75C22.59 24.82 22.35 23.33 22.32 22.64V21.62C22.83 21.73 23.36 21.79 23.89 21.79ZM21.32 23.2C21.45 24.11 21.85 25.46 23.05 26.44C22.64 26.75 22.01 27.09 21.43 26.89C20.89 26.7 20.3 25.62 19.92 24.15L21.31 23.21L21.32 23.2ZM4.01 19.02H8.58V20.07H4.01V19.02ZM4.71 21.13H7.87V22.03L4.71 23.84V21.14V21.13ZM9.72 23.4L3.4 27.01L2.86 27.32C2.74 27.39 2.6 27.41 2.46 27.37C2.32 27.33 2.21 27.25 2.14 27.12C2 26.87 2.08 26.54 2.34 26.4L9.72 22.18C9.8 22.13 9.89 22.11 9.98 22.11C10.07 22.11 10.16 22.13 10.24 22.18L17.62 26.4C17.87 26.54 17.96 26.87 17.82 27.12C17.73 27.28 17.55 27.39 17.36 27.39C17.27 27.39 17.18 27.37 17.1 27.32L16.56 27.01L10.24 23.4C10.08 23.31 9.88 23.31 9.72 23.4ZM7.5 34.95V28.97H12.49V34.95H7.5Z" fill="#624430"/>
<path d="M22.25 31.06C22.25 31.97 22.99 32.71 23.9 32.71C24.81 32.71 25.55 31.97 25.55 31.06C25.55 30.15 24.81 29.41 23.9 29.41C22.99 29.41 22.25 30.15 22.25 31.06ZM24.5 31.06C24.5 31.39 24.23 31.66 23.9 31.66C23.57 31.66 23.3 31.39 23.3 31.06C23.3 30.73 23.57 30.46 23.9 30.46C24.23 30.46 24.5 30.73 24.5 31.06Z" fill="#624430"/>
<path d="M23.35 16.25C23.56 16.3 23.73 16.33 23.91 16.33C24.09 16.33 24.25 16.3 24.47 16.25C24.75 16.18 24.92 15.89 24.85 15.61C24.78 15.33 24.49 15.16 24.21 15.23C23.96 15.29 23.88 15.29 23.63 15.23C23.35 15.16 23.06 15.33 22.99 15.61C22.92 15.89 23.09 16.18 23.37 16.25H23.35Z" fill="#624430"/>
<path d="M22.06 10.7C22.06 10.7 22.15 10.72 22.19 10.72C22.42 10.72 22.64 10.56 22.7 10.33C22.77 10.05 22.6 9.76 22.32 9.69C21.52 9.48 21.04 9.48 20.24 9.69C19.96 9.76 19.79 10.05 19.86 10.33C19.93 10.61 20.22 10.78 20.5 10.71C21.13 10.55 21.42 10.55 22.05 10.71L22.06 10.7Z" fill="#624430"/>
<path d="M25.75 10.7C26.38 10.54 26.67 10.54 27.3 10.7C27.34 10.71 27.39 10.72 27.43 10.72C27.66 10.72 27.88 10.56 27.94 10.33C28.01 10.05 27.84 9.76 27.56 9.69C26.76 9.48 26.28 9.48 25.48 9.69C25.2 9.76 25.03 10.05 25.1 10.33C25.17 10.61 25.46 10.78 25.74 10.71L25.75 10.7Z" fill="#624430"/>
<path d="M25.49 17.96C25.74 17.82 25.84 17.5 25.69 17.24C25.55 16.99 25.23 16.89 24.97 17.04C24.31 17.41 23.49 17.41 22.83 17.04C22.58 16.9 22.25 16.99 22.11 17.24C21.97 17.49 22.06 17.82 22.31 17.96C22.8 18.23 23.34 18.37 23.89 18.37C24.44 18.37 24.98 18.23 25.47 17.96H25.49Z" fill="#624430"/>
<path d="M20.95 12.12C20.66 12.12 20.42 12.36 20.42 12.65V13.07C20.42 13.36 20.66 13.6 20.95 13.6C21.24 13.6 21.48 13.36 21.48 13.07V12.65C21.48 12.36 21.24 12.12 20.95 12.12Z" fill="#624430"/>
<path d="M26.86 12.12C26.57 12.12 26.33 12.36 26.33 12.65V13.07C26.33 13.36 26.57 13.6 26.86 13.6C27.15 13.6 27.39 13.36 27.39 13.07V12.65C27.39 12.36 27.15 12.12 26.86 12.12Z" fill="#624430"/>
</g>
<defs>
<clipPath id="clip0_1_23">
<rect width="36" height="36" fill="#ffffff"/>
</clipPath>
</defs>
</svg>