<svg id="Layer_1" xmlns="http://www.w3.org/2000/svg" version="1.1" viewBox="0 0 40 40" height="100px" width="100px" transform="rotate(0) scale(1, 1)">
  <!-- Generator: Adobe Illustrator 30.0.0, SVG Export Plug-In . SVG Version: 2.1.1 Build 123)  -->
  <defs>
    <style>.st0 { fill: #624430; }</style>
  </defs>
  <path class="st0" d="M34.54,11.11c-2.07,0-3.75-1.68-3.75-3.75s1.68-3.75,3.75-3.75,3.75,1.68,3.75,3.75-1.68,3.75-3.75,3.75ZM34.54,4.9c-1.36,0-2.46,1.1-2.46,2.46s1.1,2.46,2.46,2.46,2.46-1.1,2.46-2.46-1.1-2.46-2.46-2.46Z"/>
  <g>
    <g>
      <path class="st0" d="M29.87,28.81h-1.29V7.54l-8.03-2.42v16.37h-1.29V4.25c0-.2.1-.4.26-.52.16-.12.38-.16.57-.1l9.32,2.81c.27.08.46.33.46.62v21.75Z"/>
      <g>
        <path class="st0" d="M23.01,19.02c-.36,0-.64-.29-.64-.64v-8.68c0-.36.29-.64.64-.64s.64.29.64.64v8.68c0,.36-.29.64-.64.64Z"/>
        <path class="st0" d="M26.12,14.69c-.36,0-.64-.29-.64-.64v-3.42c0-.36.29-.64.64-.64s.64.29.64.64v3.42c0,.36-.29.64-.64.64Z"/>
        <path class="st0" d="M26.12,25.48c-.36,0-.64-.29-.64-.64v-8.6c0-.36.29-.64.64-.64s.64.29.64.64v8.6c0,.36-.29.64-.64.64Z"/>
      </g>
    </g>
    <path class="st0" d="M35.37,36.39H13c-.36,0-.64-.29-.64-.64s.29-.64.64-.64h22.37c.36,0,.64.29.64.64s-.29.64-.64.64Z"/>
    <path class="st0" d="M36.01,31.05h-1.29V14.01h-5.5v-1.29h6.15c.36,0,.64.29.64.64v17.68Z"/>
    <path class="st0" d="M23.01,32.45c-.36,0-.64-.29-.64-.64v-9.64l-8.23-.03v4.22c0,.36-.29.64-.64.64s-.64-.29-.64-.64v-4.87c0-.17.07-.34.19-.46.12-.12.3-.18.46-.19l9.52.03c.36,0,.64.29.64.64v10.28c0,.36-.29.64-.64.64Z"/>
    <g>
      <path class="st0" d="M7.42,22.7h-1.29V7.36c0-.36.29-.64.64-.64h9.46c.36,0,.64.29.64.64v14.13h-1.29v-13.48H7.42v14.69Z"/>
      <path class="st0" d="M13.13,12.81h-3.25c-.36,0-.64-.29-.64-.64s.29-.64.64-.64h3.25c.36,0,.64.29.64.64s-.29.64-.64.64Z"/>
      <path class="st0" d="M13.13,15.91h-3.25c-.36,0-.64-.29-.64-.64s.29-.64.64-.64h3.25c.36,0,.64.29.64.64s-.29.64-.64.64Z"/>
      <path class="st0" d="M13.13,19.02h-3.25c-.36,0-.64-.29-.64-.64s.29-.64.64-.64h3.25c.36,0,.64.29.64.64s-.29.64-.64.64Z"/>
    </g>
  </g>
  <g>
    <path class="st0" d="M35.05,36.31h-7.02c-1.65,0-3-1.36-3-3.03,0-1.5,1.09-2.75,2.51-2.98.65-1.67,2.26-2.8,4.07-2.8s3.44,1.14,4.08,2.83c1.36.29,2.37,1.52,2.37,2.96,0,1.67-1.35,3.03-3,3.03ZM31.61,28.79c-1.38,0-2.6.94-2.97,2.29-.08.28-.33.47-.62.48-.94,0-1.7.78-1.7,1.74s.77,1.74,1.71,1.74h7.02c.94,0,1.71-.78,1.71-1.74s-.71-1.68-1.61-1.73c-.28-.02-.51-.21-.58-.47-.37-1.35-1.59-2.29-2.97-2.29Z"/>
    <path class="st0" d="M6.87,35.87c-.21,0-.4-.01-.57-.03-2.86-.37-5.01-2.82-5.01-5.7s2.37-8.27,5.75-8.27,5.75,5.37,5.75,8.27c0,.72-.13,1.43-.4,2.1,0,0,0,0,0,0-1.16,2.89-3.86,3.63-5.52,3.63ZM7.04,23.16c-2.3,0-4.46,4.36-4.46,6.98,0,2.23,1.67,4.13,3.88,4.42.13.02,3.48.35,4.74-2.79.21-.52.31-1.07.31-1.63,0-2.63-2.16-6.98-4.46-6.98Z"/>
  </g>
</svg>