<svg id="Layer_1" xmlns="http://www.w3.org/2000/svg" version="1.1" viewBox="0 0 40 40" height="100px" width="100px" transform="rotate(0) scale(1, 1)">
  <!-- Generator: Adobe Illustrator 30.0.0, SVG Export Plug-In . SVG Version: 2.1.1 Build 123)  -->
  <defs>
    <style>.st0 { fill: #624430; }</style>
  </defs>
  <path class="st0" d="M36.51,32.79c.18.11.42.14.63.08.2-.06.56-.69.68-.89l.03-.05c1.1-1.89,1.8-4.16,2.09-6.75v-2.19c-.04-.58-.17-1.45-.36-2.31-1.31-5.93-6.1-10.73-11.93-11.93l-.12-.02v-2.27s.12-.03.12-.03c1.55-.43,1.99-1.7,1.9-2.66-.1-1.07-.91-2.2-2.46-2.32-1.35-.11-5.29-.16-6.36.12-1.38.35-1.86,1.55-1.84,2.47.01.91.52,2.09,1.91,2.39l.12.03v2.27l-.12.02c-3.46.71-6.66,2.72-8.99,5.68l-.05.06h-.07s-5.57.01-5.57.01c-.36-.02-.6.21-.7.44-.1.25-.05.51.16.69.03.02.19.11.26.14h4.96l-1.48,3.36h-.1s-8.79.03-8.79.03c-.21.08-.36.26-.4.49-.04.22.04.43.21.57.05.04.35.19.4.2h8.28s-.42,3.2-.42,3.2l-.03.04c-.09.1-.27.11-1.94.06-.73-.02-1.49-.05-1.72-.01-.4.06-.54.38-.54.63s.14.57.54.63c.24.04,1.01.01,1.77-.01,1.68-.05,1.87-.04,1.97.06l.04.04v.06c0,.93.16,1.92.47,2.95l.06.19H3.74s-.33.16-.38.2c-.17.14-.25.34-.21.57.04.22.19.41.4.49l5.92.05.04.1c1.37,3.54,3.93,6.46,7.19,8.23,4.72,2.56,10.53,2.54,15.16-.05l.18-.1c.42-.22.98-.53,1.05-.94.03-.16-.02-.32-.14-.45-.13-.15-.32-.24-.5-.24h0c-.21,0-.86.38-1.28.63-.24.14-.44.26-.59.33-4.01,1.95-8.64,1.93-12.7-.04-3.99-1.94-6.82-5.5-7.75-9.76-1.07-4.91.38-9.93,3.89-13.42,3.52-3.5,8.55-4.94,13.47-3.85,4.24.94,7.78,3.75,9.7,7.72,1.97,4.04,1.99,8.67.06,12.69-.07.15-.19.35-.33.58-.28.47-.7,1.17-.65,1.44.03.2.16.32.27.38ZM26.25,8.44h-4.07v-1.95h4.07v1.95ZM27.25,5.21c-.45.06-.95.09-1.45.09-.61,0-1.25-.03-1.88-.07-.95-.05-1.93-.1-2.78-.03h-.03s-.03,0-.03,0c-.71-.2-.99-.79-.96-1.28.03-.51.4-1.06,1.14-1.17.99-.14,2.15-.09,3.27-.03.88.04,1.8.09,2.59.03.81.12,1.15.72,1.15,1.26,0,.52-.32,1.12-1.02,1.22Z"/>
  <path class="st0" d="M24.21,12.02c-6.64,0-12.04,5.4-12.04,12.04s5.4,12.04,12.04,12.04,12.04-5.4,12.04-12.04-5.4-12.04-12.04-12.04ZM24.21,34.83c-5.94,0-10.77-4.83-10.77-10.77s4.83-10.77,10.77-10.77,10.77,4.83,10.77,10.77-4.83,10.77-10.77,10.77Z"/>
  <path class="st0" d="M.63,28.28C.29,28.28,0,28.56,0,28.91s.28.63.63.63.63-.28.63-.63-.28-.63-.63-.63Z"/>
  <path class="st0" d="M34.89,34.11c-.35,0-.63.28-.63.63s.28.63.63.63.63-.28.63-.63-.28-.63-.63-.63Z"/>
  <path class="st0" d="M29.34,18.04c-.25.18-1.09,1.06-1.91,1.91-1.61,1.69-1.97,2.04-2.14,2.06-.07,0-.16-.02-.36-.09-.15-.05-.34-.12-.46-.13-.47-.04-.83.05-1.32.19l-.07.02-.06-.04c-.26-.18-.57-.53-.89-.9-.34-.39-.7-.8-.95-.93-.12-.06-.24-.09-.35-.09-.18,0-.34.08-.45.17-.16.14-.28.41-.15.72.08.19.59.66,1.01,1.04.62.56.86.79.89.95v.05s-.01.04-.01.04c-.56,1.21-.02,2.33.76,2.9.68.5,1.82.76,2.84-.14.77-.69.96-1.61.58-2.83l-.03-.09,3.99-4c.14-.21.12-.59-.06-.77-.23-.22-.62-.25-.87-.05ZM24.21,25.09c-.56,0-1.02-.46-1.02-1.02s.46-1.02,1.02-1.02,1.02.46,1.02,1.02-.46,1.02-1.02,1.02Z"/>
  <path class="st0" d="M23.58,15.69c-.09.45,0,1,.21,1.18.16.14.39.18.61.11.21-.06.37-.22.41-.41.13-.49.1-1.16-.19-1.43-.09-.08-.2-.12-.34-.12-.1,0-.2.02-.32.06-.19.06-.33.28-.39.6Z"/>
  <path class="st0" d="M31.39,23.68c-.11.17-.14.41-.09.63.07.32.66.52,1.24.42.24-.04.79-.2.73-.73-.02-.16-.1-.29-.23-.39-.31-.22-.91-.24-1.33-.14-.13.03-.23.1-.31.22Z"/>
  <path class="st0" d="M24.81,31.6c-.08-.23-.25-.51-.61-.51,0,0,0,0-.01,0-.36,0-.52.28-.59.51-.16.52,0,1.22.33,1.45.18.12.4.09.66-.1.28-.21.39-.87.22-1.35Z"/>
  <path class="st0" d="M15.31,24.42c.4.38,1.29.5,1.69.09.14-.14.19-.38.13-.61-.05-.21-.18-.37-.35-.42-.12-.04-.32-.06-.54-.06-.37,0-.77.06-.89.18-.28.3-.3.58-.05.82Z"/>
</svg>