<svg id="Layer_1" xmlns="http://www.w3.org/2000/svg" version="1.1" viewBox="0 0 80 80" height="100px" width="100px" transform="rotate(0) scale(1, 1)">
  <!-- Generator: Adobe Illustrator 30.0.0, SVG Export Plug-In . SVG Version: 2.1.1 Build 123)  -->
  <defs>
    <style>.st0 { fill: #624430; }</style>
  </defs>
  <path class="st0" d="M19.12,7.63c1.04.19,2.65,1.63,2.65,2.72v12.33h27.88l14.16-14.16,1.58-.88h1.26c.96.29,1.64.88,2.36,1.56s2.31,2.23,2.83,2.93c.31.42.41.87.63,1.33v1.26l-.82,1.52-6.39,6.45h3.98c.54,0,1.58.42,2.02.76.65.5.88,1.19,1.2,1.9v44.37c-.44,1.49-1.6,2.62-3.22,2.66H16.02c-4.37-.33-7.91-3.78-8.28-8.15V15.54c.34-3.47,2.79-6.53,6.13-7.53l1.46-.38h3.79ZM9.9,57.95c1.11-1.04,2.34-1.98,3.82-2.44,1.77-.55,3.55-.38,5.38-.56.34-.16.55-.74.54-1.1l-.03-43.22c-.27-1.18-2.85-.92-3.81-.83-2.68.25-5.89,2.9-5.89,5.74v42.41ZM65.87,9.81c-.41.08-2.15,1.66-2.11,1.92l4.71,4.62c.6-.67,2.12-1.63,1.8-2.65-.65-.65-3.32-3.76-3.96-3.89-.16-.03-.28-.03-.44,0ZM62.17,13.18l-1.66,1.66,4.75,4.75,1.66-1.66-4.75-4.75ZM59,16.35l-11.76,11.77,4.75,4.75,11.76-11.77-4.75-4.75ZM47.32,24.95h-25.54v29.65s-.3.79-.36.91c-1.37,2.74-4.88,1.29-7.23,2.13-6.71,2.38-5.14,12.1,2.2,12.58h52.73c.49.03.86-.27,1.1-.67V25.61c-.15-.52-.46-.61-.97-.66-2.01-.18-4.35.09-6.39.07l-10.37,10.37c-1.29,1.03-3.85,1.24-5.5,1.33-5.3.29-10.86-.22-16.19-.01l-.44.2v11.69h25.92v-5.63c0-.12.44-.6.58-.68.75-.4,1.47.15,1.57.93v16.44c-.13,1.22-1.17,1.9-2.34,1.96h-21.24c-.85-.04-1.47-.78-1.11-1.62.07-.16.47-.54.6-.54h7.9v-8.72h-11.88v15.49c0,.58-1.25.94-1.77.5-.07-.06-.38-.59-.38-.63v-29.39h-3.6c-.42,0-.75-.77-.69-1.19.05-.38.58-.96.95-.96h18.52c.13-1.71.03-4.37.7-5.94.59-1.41,2.33-2.45,3.22-3.67ZM50.22,34.18l-4.3-4.3c.08.8-.7,4.04-.22,4.52,1.42.4,3.05-.2,4.52-.22ZM56.29,50.74h-11.88v8.72h11.88v-8.72Z"/>
</svg>