<svg width="24px" height="24px" viewBox="0 0 24 24" fill="none" xmlns="http://www.w3.org/2000/svg" transform="rotate(0) scale(1, 1)">
<g clip-path="url(#clip0_322_62)">
<path d="M1.87402 17.625C1.87402 18.3212 2.15059 18.9889 2.64287 19.4812C3.13515 19.9734 3.80283 20.25 4.49902 20.25C5.19522 20.25 5.8629 19.9734 6.35518 19.4812C6.84746 18.9889 7.12402 18.3212 7.12402 17.625C7.12402 16.9288 6.84746 16.2611 6.35518 15.7688C5.8629 15.2766 5.19522 15 4.49902 15C3.80283 15 3.13515 15.2766 2.64287 15.7688C2.15059 16.2611 1.87402 16.9288 1.87402 17.625Z" stroke="url(#paint0_linear_322_62)" stroke-width="1.5" stroke-linecap="round" stroke-linejoin="round"/>
<path d="M8.24902 23.25C7.88654 22.5703 7.34615 22.002 6.68563 21.6057C6.02511 21.2093 5.26931 21 4.49902 21C3.72874 21 2.97293 21.2093 2.31242 21.6057C1.6519 22.002 1.11151 22.5703 0.749023 23.25M16.874 17.625C16.874 17.9697 16.9419 18.3111 17.0738 18.6295C17.2058 18.948 17.3991 19.2374 17.6429 19.4812C17.8866 19.7249 18.176 19.9183 18.4945 20.0502C18.813 20.1821 19.1543 20.25 19.499 20.25C19.8437 20.25 20.1851 20.1821 20.5036 20.0502C20.822 19.9183 21.1114 19.7249 21.3552 19.4812C21.5989 19.2374 21.7923 18.948 21.9242 18.6295C22.0561 18.3111 22.124 17.9697 22.124 17.625C22.124 16.9288 21.8475 16.2611 21.3552 15.7688C20.8629 15.2766 20.1952 15 19.499 15C18.8028 15 18.1352 15.2766 17.6429 15.7688C17.1506 16.2611 16.874 16.9288 16.874 17.625Z" stroke="url(#paint1_linear_322_62)" stroke-width="1.5" stroke-linecap="round" stroke-linejoin="round"/>
<path d="M23.249 23.25C22.8866 22.5703 22.3462 22.002 21.6857 21.6057C21.0251 21.2093 20.2693 21 19.499 21C18.7288 21 17.973 21.2093 17.3124 21.6057C16.6519 22.002 16.1115 22.5703 15.749 23.25M15.248 8.25C14.8472 7.7796 14.349 7.40182 13.7879 7.14277C13.2267 6.88371 12.6161 6.74955 11.998 6.74955C11.38 6.74955 10.7693 6.88371 10.2082 7.14277C9.6471 7.40182 9.14891 7.7796 8.74805 8.25M9.05005 19.707C10.9653 20.4369 13.0832 20.4305 14.994 19.689M6.34805 6C5.52723 6.76901 4.87296 7.69829 4.42574 8.73033C3.97852 9.76238 3.74786 10.8752 3.74805 12C3.74805 12.253 3.76305 12.5 3.78605 12.75M20.211 12.75C20.233 12.502 20.249 12.25 20.249 12C20.2492 10.8752 20.0186 9.76238 19.5714 8.73033C19.1241 7.69829 18.4699 6.76901 17.649 6M9.37405 3.375C9.37405 3.71972 9.44194 4.06106 9.57386 4.37954C9.70578 4.69802 9.89914 4.9874 10.1429 5.23116C10.3866 5.47491 10.676 5.66827 10.9945 5.80018C11.313 5.9321 11.6543 6 11.999 6C12.3438 6 12.6851 5.9321 13.0036 5.80018C13.3221 5.66827 13.6114 5.47491 13.8552 5.23116C14.099 4.9874 14.2923 4.69802 14.4242 4.37954C14.5561 4.06106 14.624 3.71972 14.624 3.375C14.624 2.67881 14.3475 2.01113 13.8552 1.51884C13.3629 1.02656 12.6952 0.75 11.999 0.75C11.3029 0.75 10.6352 1.02656 10.1429 1.51884C9.65061 2.01113 9.37405 2.67881 9.37405 3.375Z" stroke="url(#paint2_linear_322_62)" stroke-width="1.5" stroke-linecap="round" stroke-linejoin="round"/>
</g>
<defs>
<linearGradient id="paint0_linear_322_62" x1="5.1063" y1="15" x2="5.05" y2="20.2559" gradientUnits="userSpaceOnUse">
<stop stop-color="#624430" data-originalstopcolor="#624430"/>
<stop offset="0.413646" stop-color="#624430" data-originalstopcolor="#624430"/>
</linearGradient>
<linearGradient id="paint1_linear_322_62" x1="13.909" y1="15" x2="13.8749" y2="23.2601" gradientUnits="userSpaceOnUse">
<stop stop-color="#624430" data-originalstopcolor="#624430"/>
<stop offset="0.413646" stop-color="#624430" data-originalstopcolor="#624430"/>
</linearGradient>
<linearGradient id="paint2_linear_322_62" x1="15.7543" y1="0.75" x2="15.4759" y2="23.2744" gradientUnits="userSpaceOnUse">
<stop stop-color="#624430" data-originalstopcolor="#624430"/>
<stop offset="0.413646" stop-color="#624430" data-originalstopcolor="#624430"/>
</linearGradient>
<clipPath id="clip0_322_62">
<rect width="24" height="24" fill="#ffffff"/>
</clipPath>
</defs>
</svg>