<svg width="24px" height="24px" viewBox="0 0 24 24" fill="none" xmlns="http://www.w3.org/2000/svg" transform="rotate(0) scale(1, 1)">
<path d="M21 1.5H3C2.175 1.5 1.5 2.175 1.5 3V21C1.5 21.825 2.175 22.5 3 22.5H14.25V21C14.25 18.9 15.9 17.25 18 17.25V15.75C15.075 15.75 12.75 18.075 12.75 21H10.5V18H9V21H3V3H9V13.5H10.5V9.75H13.5V8.25H10.5V3H21V8.25H18V9.75H21V21H18V22.5H21C21.825 22.5 22.5 21.825 22.5 21V3C22.5 2.175 21.825 1.5 21 1.5Z" fill="url(#paint0_linear_322_72)"/>
<defs>
<linearGradient id="paint0_linear_322_72" x1="14.4291" y1="1.5" x2="14.2039" y2="22.5236" gradientUnits="userSpaceOnUse">
<stop stop-color="#624430" data-originalstopcolor="#624430"/>
<stop offset="0.413646" stop-color="#624430" data-originalstopcolor="#624430"/>
</linearGradient>
</defs>
</svg>