<svg width="24px" height="24px" viewBox="0 0 24 24" fill="none" xmlns="http://www.w3.org/2000/svg" transform="rotate(0) scale(1, 1)">
<path d="M17.25 1.5C17.1513 1.50002 17.0536 1.51951 16.9625 1.55735C16.8714 1.59518 16.7887 1.65063 16.719 1.7205L15.441 3H9.75C9.55109 3 9.36032 3.07902 9.21967 3.21967C9.07902 3.36032 9 3.55109 9 3.75C9 3.94891 9.07902 4.13968 9.21967 4.28033C9.36032 4.42098 9.55109 4.5 9.75 4.5H10.5V6.75C10.5 6.94891 10.579 7.13968 10.7197 7.28033C10.8603 7.42098 11.0511 7.5 11.25 7.5C11.4489 7.5 11.6397 7.42098 11.7803 7.28033C11.921 7.13968 12 6.94891 12 6.75V4.5H16.5V20.25C16.5 20.6655 16.8345 21 17.25 21H18.75C19.1655 21 19.5 20.6655 19.5 20.25V4.5H20.25C20.4489 4.5 20.6397 4.42098 20.7803 4.28033C20.921 4.13968 21 3.94891 21 3.75V2.25C21 2.05109 20.921 1.86032 20.7803 1.71967C20.6397 1.57902 20.4489 1.5 20.25 1.5H17.25ZM3.75 4.5C3.55109 4.5 3.36032 4.57902 3.21967 4.71967C3.07902 4.86032 3 5.05109 3 5.25V20.25C3 20.4489 3.07902 20.6397 3.21967 20.7803C3.36032 20.921 3.55109 21 3.75 21H12.75C12.9489 21 13.1397 20.921 13.2803 20.7803C13.421 20.6397 13.5 20.4489 13.5 20.25V9.75C13.5 9.55109 13.421 9.36032 13.2803 9.21967C13.1397 9.07902 12.9489 9 12.75 9C12.5511 9 12.3603 9.07902 12.2197 9.21967C12.079 9.36032 12 9.55109 12 9.75V10.5H9V6.75C9 6.55109 8.92098 6.36032 8.78033 6.21967C8.63968 6.07902 8.44891 6 8.25 6H4.5V5.25C4.5 5.05109 4.42098 4.86032 4.28033 4.71967C4.13968 4.57902 3.94891 4.5 3.75 4.5ZM4.5 7.5H7.5V10.5H4.5V7.5ZM4.5 12H7.5V15H4.5V12ZM9 12H12V15H9V12ZM4.5 16.5H7.5V19.5H4.5V16.5ZM9 16.5H12V19.5H9V16.5Z" fill="url(#paint0_linear_322_79)"/>
<defs>
<linearGradient id="paint0_linear_322_79" x1="14.0821" y1="1.5" x2="13.8555" y2="21.0215" gradientUnits="userSpaceOnUse">
<stop stop-color="#624430" data-originalstopcolor="#624430"/>
<stop offset="0.413646" stop-color="#624430" data-originalstopcolor="#624430"/>
</linearGradient>
</defs>
</svg>